<svg width="223" height="126" viewBox="0 0 223 126" fill="none" xmlns="http://www.w3.org/2000/svg">
<mask id="path-1-outside-1_1_27" maskUnits="userSpaceOnUse" x="50.7243" y="0.736786" width="62" height="75" fill="black">
<rect fill="white" x="50.7243" y="0.736786" width="62" height="75"/>
<path d="M71.2199 1.37537C68.2629 2.32162 65.5128 4.68724 64.2413 7.43727C63.6203 8.76794 63.4429 8.88622 61.4026 9.62547C57.0557 11.2223 53.9213 13.9427 52.7089 17.1659C51.7627 19.6794 51.5261 23.1095 51.881 29.1418C52.0288 32.0693 52.0879 35.736 51.9697 37.2736C51.8514 38.8113 51.7627 40.6151 51.7922 41.2361C51.8218 43.0398 53.0046 44.4888 55.3407 45.642L57.2923 46.5883H62.3784H67.494V50.669C67.494 54.9271 67.6123 55.4594 68.8543 56.8196C69.5048 57.4997 71.3382 62.2605 71.3382 63.2068C71.3382 63.4729 70.9242 63.5912 70.0962 63.5912C68.5881 63.5912 68.9726 64.0052 70.9833 64.5078C72.107 64.8035 72.314 65.0401 73.2011 66.6665C75.0936 70.274 79.884 74.2069 82.9297 74.7096C83.669 74.7983 83.4916 74.68 82.3087 74.2069C80.2093 73.3789 76.5721 69.7714 75.2415 67.2579C74.7092 66.2525 74.2952 65.3062 74.2952 65.1584C74.2952 64.6853 77.6366 63.7982 80.2093 63.5616C84.2308 63.2068 86.5373 62.8223 87.3061 62.4084C87.7201 62.1718 89.376 61.9057 91.0024 61.817C93.2497 61.6987 94.2847 61.4917 95.2309 60.989C96.6799 60.2497 98.5132 58.6234 97.5079 59.0078C95.1718 59.8653 94.4621 59.8357 91.2981 58.8304C88.1045 57.825 86.6851 57.9433 84.6448 59.3035L83.1367 60.3089L81.9539 59.8357C79.9431 59.0374 78.1393 59.4218 75.5963 61.196C74.4135 62.0239 73.349 62.7041 73.2898 62.7041C72.8463 62.7041 70.8946 54.5131 70.3032 50.2846C70.1258 48.9539 70.1258 48.9539 71.5452 47.8598C77.4592 43.3651 83.5803 41.4135 91.8895 41.3543L95.7336 41.3248L93.2202 40.9108C91.5642 40.6447 89.4056 40.5559 86.8626 40.6447C80.9189 40.8516 76.6608 42.1527 72.0183 45.1393C69.7414 46.5883 69.564 46.677 69.564 46.056C69.564 45.7012 69.4161 43.099 69.2683 40.2602L68.9726 35.115L69.771 34.0505C76.099 25.5343 84.4674 23.2574 96.4729 26.7466C97.8331 27.1606 99.0159 27.4268 99.0751 27.3676C99.1342 27.338 97.8923 26.7762 96.2955 26.1848L93.4567 25.0611L93.575 21.3649C93.6933 17.9051 93.6637 17.7573 93.3089 19.1175C93.1019 19.9159 92.8653 21.5423 92.747 22.7251C92.54 25.0316 92.6879 24.9133 90.825 24.381C90.204 24.2036 90.1744 24.1149 90.3814 20.4482C90.4701 18.4078 90.7067 16.0718 90.8545 15.2734C91.032 14.475 91.0911 13.7653 91.032 13.7062C90.825 13.4992 89.7013 16.2196 89.2282 18.053C88.9916 18.9697 88.6959 20.6847 88.6072 21.8675L88.4002 24.0262L87.5131 23.8488C87.04 23.76 85.9163 23.6713 85.0588 23.6713H83.462V22.6659C83.462 21.2466 82.634 15.303 82.1905 13.3218C81.8356 11.8728 81.806 12.3459 81.9243 17.8164L82.0722 23.9375L81.2146 24.1149C80.7415 24.2332 80.2093 24.3515 80.0023 24.4106C79.7953 24.4993 79.5587 24.1149 79.47 23.4348C78.7012 18.7035 77.5184 15.1551 75.8033 12.4642C74.5613 10.5126 73.6447 9.80289 74.6796 11.5771C76.2173 14.2089 77.7549 19.7385 77.8732 23.0799L77.9619 24.9724L76.6904 25.6525C76.0103 26.0074 74.7979 26.7762 73.9699 27.338C73.1715 27.9295 72.4027 28.4026 72.2844 28.4026C72.1366 28.4026 71.6043 27.8112 71.072 27.0719C69.6527 25.1203 66.5774 22.1041 65.0397 21.217C63.2064 20.1229 63.1472 20.2116 64.744 21.6606C66.3408 23.1686 68.1446 25.4751 69.6822 28.0477L70.8059 29.8811L69.2387 31.6849C68.1446 32.9564 67.5828 33.3999 67.2279 33.2521C64.744 32.2171 62.3193 31.5666 60.545 31.4779L58.4751 31.3892L59.9536 31.8327C62.3784 32.572 66.1042 34.0209 66.8435 34.494C67.4645 34.908 67.494 35.0854 67.494 38.9296V42.9216L65.6311 43.7791C62.0827 45.4646 58.8004 45.5533 56.3461 44.0452C54.0692 42.6259 53.4482 40.5855 54.0692 36.6822C54.3944 34.5828 54.424 33.3704 54.1874 30.8569C53.389 22.1928 54.3649 18.1121 58.1498 14.3567C59.7762 12.7599 63.0289 10.6604 63.9456 10.6604C64.123 10.6604 64.8919 11.0744 65.6607 11.6067C69.4753 14.1497 71.9887 16.9589 73.3194 20.0342L74.0291 21.7493L73.8812 20.1229C73.6447 17.6686 72.1661 15.0073 69.7414 12.5529C68.5881 11.3997 67.3166 10.2464 66.9322 9.98032C66.2817 9.53676 66.2521 9.41848 66.5774 8.76794C67.3166 7.40771 69.1204 5.84048 70.9242 4.98294C74.1178 3.50443 78.1985 3.56357 81.8356 5.18993C83.1958 5.78134 83.7281 5.84048 85.9459 5.7222C87.8975 5.57435 88.7846 5.66306 89.79 6.04747C91.1207 6.55016 92.954 8.29481 93.9594 10.0099C94.5213 10.9266 94.61 10.9857 95.7336 10.7491C99.7848 9.95074 102.446 10.9266 105.462 14.2976C106.438 15.3917 107.68 16.5449 108.183 16.8702C109.484 17.6094 110.696 19.8272 111.435 22.7842L112.086 25.2977L112.293 23.5826C112.677 20.4777 111.79 18.2896 109.129 15.8056C108.271 15.0073 107.207 13.8244 106.793 13.1739C105.581 11.311 104.161 10.0395 102.387 9.21149C101.027 8.56094 100.258 8.41309 97.6261 8.35395C94.5508 8.23567 94.4917 8.23567 93.989 7.40771C93.2202 6.04747 91.1207 4.15498 89.5239 3.29744C88.1637 2.58775 87.7497 2.52861 84.2012 2.49905C80.8598 2.46947 80.1797 2.38076 78.8786 1.78936C76.9861 0.902252 73.3194 0.695259 71.2199 1.37537Z"/>
</mask>
<path d="M71.2199 1.37537C68.2629 2.32162 65.5128 4.68724 64.2413 7.43727C63.6203 8.76794 63.4429 8.88622 61.4026 9.62547C57.0557 11.2223 53.9213 13.9427 52.7089 17.1659C51.7627 19.6794 51.5261 23.1095 51.881 29.1418C52.0288 32.0693 52.0879 35.736 51.9697 37.2736C51.8514 38.8113 51.7627 40.6151 51.7922 41.2361C51.8218 43.0398 53.0046 44.4888 55.3407 45.642L57.2923 46.5883H62.3784H67.494V50.669C67.494 54.9271 67.6123 55.4594 68.8543 56.8196C69.5048 57.4997 71.3382 62.2605 71.3382 63.2068C71.3382 63.4729 70.9242 63.5912 70.0962 63.5912C68.5881 63.5912 68.9726 64.0052 70.9833 64.5078C72.107 64.8035 72.314 65.0401 73.2011 66.6665C75.0936 70.274 79.884 74.2069 82.9297 74.7096C83.669 74.7983 83.4916 74.68 82.3087 74.2069C80.2093 73.3789 76.5721 69.7714 75.2415 67.2579C74.7092 66.2525 74.2952 65.3062 74.2952 65.1584C74.2952 64.6853 77.6366 63.7982 80.2093 63.5616C84.2308 63.2068 86.5373 62.8223 87.3061 62.4084C87.7201 62.1718 89.376 61.9057 91.0024 61.817C93.2497 61.6987 94.2847 61.4917 95.2309 60.989C96.6799 60.2497 98.5132 58.6234 97.5079 59.0078C95.1718 59.8653 94.4621 59.8357 91.2981 58.8304C88.1045 57.825 86.6851 57.9433 84.6448 59.3035L83.1367 60.3089L81.9539 59.8357C79.9431 59.0374 78.1393 59.4218 75.5963 61.196C74.4135 62.0239 73.349 62.7041 73.2898 62.7041C72.8463 62.7041 70.8946 54.5131 70.3032 50.2846C70.1258 48.9539 70.1258 48.9539 71.5452 47.8598C77.4592 43.3651 83.5803 41.4135 91.8895 41.3543L95.7336 41.3248L93.2202 40.9108C91.5642 40.6447 89.4056 40.5559 86.8626 40.6447C80.9189 40.8516 76.6608 42.1527 72.0183 45.1393C69.7414 46.5883 69.564 46.677 69.564 46.056C69.564 45.7012 69.4161 43.099 69.2683 40.2602L68.9726 35.115L69.771 34.0505C76.099 25.5343 84.4674 23.2574 96.4729 26.7466C97.8331 27.1606 99.0159 27.4268 99.0751 27.3676C99.1342 27.338 97.8923 26.7762 96.2955 26.1848L93.4567 25.0611L93.575 21.3649C93.6933 17.9051 93.6637 17.7573 93.3089 19.1175C93.1019 19.9159 92.8653 21.5423 92.747 22.7251C92.54 25.0316 92.6879 24.9133 90.825 24.381C90.204 24.2036 90.1744 24.1149 90.3814 20.4482C90.4701 18.4078 90.7067 16.0718 90.8545 15.2734C91.032 14.475 91.0911 13.7653 91.032 13.7062C90.825 13.4992 89.7013 16.2196 89.2282 18.053C88.9916 18.9697 88.6959 20.6847 88.6072 21.8675L88.4002 24.0262L87.5131 23.8488C87.04 23.76 85.9163 23.6713 85.0588 23.6713H83.462V22.6659C83.462 21.2466 82.634 15.303 82.1905 13.3218C81.8356 11.8728 81.806 12.3459 81.9243 17.8164L82.0722 23.9375L81.2146 24.1149C80.7415 24.2332 80.2093 24.3515 80.0023 24.4106C79.7953 24.4993 79.5587 24.1149 79.47 23.4348C78.7012 18.7035 77.5184 15.1551 75.8033 12.4642C74.5613 10.5126 73.6447 9.80289 74.6796 11.5771C76.2173 14.2089 77.7549 19.7385 77.8732 23.0799L77.9619 24.9724L76.6904 25.6525C76.0103 26.0074 74.7979 26.7762 73.9699 27.338C73.1715 27.9295 72.4027 28.4026 72.2844 28.4026C72.1366 28.4026 71.6043 27.8112 71.072 27.0719C69.6527 25.1203 66.5774 22.1041 65.0397 21.217C63.2064 20.1229 63.1472 20.2116 64.744 21.6606C66.3408 23.1686 68.1446 25.4751 69.6822 28.0477L70.8059 29.8811L69.2387 31.6849C68.1446 32.9564 67.5828 33.3999 67.2279 33.2521C64.744 32.2171 62.3193 31.5666 60.545 31.4779L58.4751 31.3892L59.9536 31.8327C62.3784 32.572 66.1042 34.0209 66.8435 34.494C67.4645 34.908 67.494 35.0854 67.494 38.9296V42.9216L65.6311 43.7791C62.0827 45.4646 58.8004 45.5533 56.3461 44.0452C54.0692 42.6259 53.4482 40.5855 54.0692 36.6822C54.3944 34.5828 54.424 33.3704 54.1874 30.8569C53.389 22.1928 54.3649 18.1121 58.1498 14.3567C59.7762 12.7599 63.0289 10.6604 63.9456 10.6604C64.123 10.6604 64.8919 11.0744 65.6607 11.6067C69.4753 14.1497 71.9887 16.9589 73.3194 20.0342L74.0291 21.7493L73.8812 20.1229C73.6447 17.6686 72.1661 15.0073 69.7414 12.5529C68.5881 11.3997 67.3166 10.2464 66.9322 9.98032C66.2817 9.53676 66.2521 9.41848 66.5774 8.76794C67.3166 7.40771 69.1204 5.84048 70.9242 4.98294C74.1178 3.50443 78.1985 3.56357 81.8356 5.18993C83.1958 5.78134 83.7281 5.84048 85.9459 5.7222C87.8975 5.57435 88.7846 5.66306 89.79 6.04747C91.1207 6.55016 92.954 8.29481 93.9594 10.0099C94.5213 10.9266 94.61 10.9857 95.7336 10.7491C99.7848 9.95074 102.446 10.9266 105.462 14.2976C106.438 15.3917 107.68 16.5449 108.183 16.8702C109.484 17.6094 110.696 19.8272 111.435 22.7842L112.086 25.2977L112.293 23.5826C112.677 20.4777 111.79 18.2896 109.129 15.8056C108.271 15.0073 107.207 13.8244 106.793 13.1739C105.581 11.311 104.161 10.0395 102.387 9.21149C101.027 8.56094 100.258 8.41309 97.6261 8.35395C94.5508 8.23567 94.4917 8.23567 93.989 7.40771C93.2202 6.04747 91.1207 4.15498 89.5239 3.29744C88.1637 2.58775 87.7497 2.52861 84.2012 2.49905C80.8598 2.46947 80.1797 2.38076 78.8786 1.78936C76.9861 0.902252 73.3194 0.695259 71.2199 1.37537Z" fill="#FFB800"/>
<path d="M71.2199 1.37537C68.2629 2.32162 65.5128 4.68724 64.2413 7.43727C63.6203 8.76794 63.4429 8.88622 61.4026 9.62547C57.0557 11.2223 53.9213 13.9427 52.7089 17.1659C51.7627 19.6794 51.5261 23.1095 51.881 29.1418C52.0288 32.0693 52.0879 35.736 51.9697 37.2736C51.8514 38.8113 51.7627 40.6151 51.7922 41.2361C51.8218 43.0398 53.0046 44.4888 55.3407 45.642L57.2923 46.5883H62.3784H67.494V50.669C67.494 54.9271 67.6123 55.4594 68.8543 56.8196C69.5048 57.4997 71.3382 62.2605 71.3382 63.2068C71.3382 63.4729 70.9242 63.5912 70.0962 63.5912C68.5881 63.5912 68.9726 64.0052 70.9833 64.5078C72.107 64.8035 72.314 65.0401 73.2011 66.6665C75.0936 70.274 79.884 74.2069 82.9297 74.7096C83.669 74.7983 83.4916 74.68 82.3087 74.2069C80.2093 73.3789 76.5721 69.7714 75.2415 67.2579C74.7092 66.2525 74.2952 65.3062 74.2952 65.1584C74.2952 64.6853 77.6366 63.7982 80.2093 63.5616C84.2308 63.2068 86.5373 62.8223 87.3061 62.4084C87.7201 62.1718 89.376 61.9057 91.0024 61.817C93.2497 61.6987 94.2847 61.4917 95.2309 60.989C96.6799 60.2497 98.5132 58.6234 97.5079 59.0078C95.1718 59.8653 94.4621 59.8357 91.2981 58.8304C88.1045 57.825 86.6851 57.9433 84.6448 59.3035L83.1367 60.3089L81.9539 59.8357C79.9431 59.0374 78.1393 59.4218 75.5963 61.196C74.4135 62.0239 73.349 62.7041 73.2898 62.7041C72.8463 62.7041 70.8946 54.5131 70.3032 50.2846C70.1258 48.9539 70.1258 48.9539 71.5452 47.8598C77.4592 43.3651 83.5803 41.4135 91.8895 41.3543L95.7336 41.3248L93.2202 40.9108C91.5642 40.6447 89.4056 40.5559 86.8626 40.6447C80.9189 40.8516 76.6608 42.1527 72.0183 45.1393C69.7414 46.5883 69.564 46.677 69.564 46.056C69.564 45.7012 69.4161 43.099 69.2683 40.2602L68.9726 35.115L69.771 34.0505C76.099 25.5343 84.4674 23.2574 96.4729 26.7466C97.8331 27.1606 99.0159 27.4268 99.0751 27.3676C99.1342 27.338 97.8923 26.7762 96.2955 26.1848L93.4567 25.0611L93.575 21.3649C93.6933 17.9051 93.6637 17.7573 93.3089 19.1175C93.1019 19.9159 92.8653 21.5423 92.747 22.7251C92.54 25.0316 92.6879 24.9133 90.825 24.381C90.204 24.2036 90.1744 24.1149 90.3814 20.4482C90.4701 18.4078 90.7067 16.0718 90.8545 15.2734C91.032 14.475 91.0911 13.7653 91.032 13.7062C90.825 13.4992 89.7013 16.2196 89.2282 18.053C88.9916 18.9697 88.6959 20.6847 88.6072 21.8675L88.4002 24.0262L87.5131 23.8488C87.04 23.76 85.9163 23.6713 85.0588 23.6713H83.462V22.6659C83.462 21.2466 82.634 15.303 82.1905 13.3218C81.8356 11.8728 81.806 12.3459 81.9243 17.8164L82.0722 23.9375L81.2146 24.1149C80.7415 24.2332 80.2093 24.3515 80.0023 24.4106C79.7953 24.4993 79.5587 24.1149 79.47 23.4348C78.7012 18.7035 77.5184 15.1551 75.8033 12.4642C74.5613 10.5126 73.6447 9.80289 74.6796 11.5771C76.2173 14.2089 77.7549 19.7385 77.8732 23.0799L77.9619 24.9724L76.6904 25.6525C76.0103 26.0074 74.7979 26.7762 73.9699 27.338C73.1715 27.9295 72.4027 28.4026 72.2844 28.4026C72.1366 28.4026 71.6043 27.8112 71.072 27.0719C69.6527 25.1203 66.5774 22.1041 65.0397 21.217C63.2064 20.1229 63.1472 20.2116 64.744 21.6606C66.3408 23.1686 68.1446 25.4751 69.6822 28.0477L70.8059 29.8811L69.2387 31.6849C68.1446 32.9564 67.5828 33.3999 67.2279 33.2521C64.744 32.2171 62.3193 31.5666 60.545 31.4779L58.4751 31.3892L59.9536 31.8327C62.3784 32.572 66.1042 34.0209 66.8435 34.494C67.4645 34.908 67.494 35.0854 67.494 38.9296V42.9216L65.6311 43.7791C62.0827 45.4646 58.8004 45.5533 56.3461 44.0452C54.0692 42.6259 53.4482 40.5855 54.0692 36.6822C54.3944 34.5828 54.424 33.3704 54.1874 30.8569C53.389 22.1928 54.3649 18.1121 58.1498 14.3567C59.7762 12.7599 63.0289 10.6604 63.9456 10.6604C64.123 10.6604 64.8919 11.0744 65.6607 11.6067C69.4753 14.1497 71.9887 16.9589 73.3194 20.0342L74.0291 21.7493L73.8812 20.1229C73.6447 17.6686 72.1661 15.0073 69.7414 12.5529C68.5881 11.3997 67.3166 10.2464 66.9322 9.98032C66.2817 9.53676 66.2521 9.41848 66.5774 8.76794C67.3166 7.40771 69.1204 5.84048 70.9242 4.98294C74.1178 3.50443 78.1985 3.56357 81.8356 5.18993C83.1958 5.78134 83.7281 5.84048 85.9459 5.7222C87.8975 5.57435 88.7846 5.66306 89.79 6.04747C91.1207 6.55016 92.954 8.29481 93.9594 10.0099C94.5213 10.9266 94.61 10.9857 95.7336 10.7491C99.7848 9.95074 102.446 10.9266 105.462 14.2976C106.438 15.3917 107.68 16.5449 108.183 16.8702C109.484 17.6094 110.696 19.8272 111.435 22.7842L112.086 25.2977L112.293 23.5826C112.677 20.4777 111.79 18.2896 109.129 15.8056C108.271 15.0073 107.207 13.8244 106.793 13.1739C105.581 11.311 104.161 10.0395 102.387 9.21149C101.027 8.56094 100.258 8.41309 97.6261 8.35395C94.5508 8.23567 94.4917 8.23567 93.989 7.40771C93.2202 6.04747 91.1207 4.15498 89.5239 3.29744C88.1637 2.58775 87.7497 2.52861 84.2012 2.49905C80.8598 2.46947 80.1797 2.38076 78.8786 1.78936C76.9861 0.902252 73.3194 0.695259 71.2199 1.37537Z" stroke="#FFB800" stroke-width="0.4" mask="url(#path-1-outside-1_1_27)"/>
<mask id="path-2-outside-2_1_27" maskUnits="userSpaceOnUse" x="0" y="23.2183" width="82" height="93" fill="black">
<rect fill="white" y="23.2183" width="82" height="93"/>
<path d="M35.204 24.174C34.9378 24.4697 34.583 25.6821 34.376 26.8945C34.169 28.1069 33.7846 29.9402 33.4889 30.9456C32.9862 32.7198 30.9459 37.7763 30.5614 38.2199C30.4727 38.3382 30.384 35.943 30.384 32.8972C30.384 28.0773 30.3249 27.2493 29.8518 26.5396C29.2308 25.5934 27.8706 25.4455 27.0426 26.2735C26.5695 26.7466 26.4807 27.8999 26.1259 37.4215C25.9189 43.2764 25.7119 48.0963 25.6528 48.1555C25.6232 48.2146 24.9135 47.5937 24.0856 46.8248L22.5775 45.4054L22.9915 43.4834C23.5237 41.1178 23.5829 37.2441 23.0802 36.7414C22.8732 36.5344 22.4592 36.3865 22.1044 36.3865C20.8033 36.3865 20.4484 37.0075 19.857 40.4968C19.5613 42.3597 19.1178 44.5775 18.8812 45.435L18.4672 47.0318L20.8624 50.4915L23.228 53.9512L23.021 60.1019C22.8436 66.1342 22.814 66.3116 21.8382 69.0321C20.4188 72.9649 18.4376 76.8091 15.865 80.594C12.8784 85.0592 13.0559 84.8817 11.7252 84.8817C10.6015 84.8817 10.5424 84.9409 9.2413 87.3065C6.7574 91.8307 2.79498 97.6265 1.43475 98.7502C0.754636 99.3416 0.843347 100.081 1.90788 102.239C3.74123 105.995 8.17677 109.869 12.5532 111.584C17.5505 113.565 22.4296 113.358 28.2254 110.933C30.384 110.016 30.5023 109.987 31.5668 110.43C33.1636 111.111 34.9378 112.619 35.9137 114.127C36.3572 114.866 36.7416 115.339 36.7416 115.191C36.7416 114.629 34.583 111.199 32.9271 109.129L31.1233 106.912V104.753C31.1233 102.713 31.1824 102.506 32.0104 101.737C33.9029 99.9626 37.4809 99.8443 41.2363 101.441L43.3358 102.299L42.5374 101.471C42.0938 100.998 41.2659 100.377 40.704 100.081C40.1422 99.7851 39.6986 99.4007 39.6986 99.2529C39.6986 99.105 40.3196 97.9222 41.0884 96.5915C47.0616 86.1532 55.5483 80.8602 68.3818 79.5591C70.0969 79.3817 72.0485 79.2042 72.7582 79.1155L74.0001 78.9677V80.2096C74.0001 81.3037 74.1776 81.6586 75.4491 82.9597C76.2475 83.7581 77.9921 85.9463 79.2932 87.7796L81.6884 91.1506V87.3065C81.6884 83.0484 81.8954 83.5806 78.8792 79.8548C77.2824 77.8736 75.7743 75.2714 75.7743 74.473C75.7743 73.7633 75.3604 73.5859 74.7394 74.059C74.4141 74.2956 74.1776 74.9757 74.0593 75.9515L73.9114 77.4892H71.9598C69.742 77.4892 64.8038 78.1101 61.7285 78.7903C56.7902 79.8548 51.3493 82.1021 47.5939 84.6452C43.8976 87.1586 39.8169 91.6237 38.2201 94.8765L37.4809 96.4141H36.0024C35.204 96.4141 33.9324 96.562 33.2228 96.7394C32.5131 96.8872 31.8921 96.976 31.833 96.9168C31.7147 96.7985 32.7792 89.3468 33.0749 88.2823C33.4298 86.9221 32.6314 88.6667 31.7738 91.1506C30.4432 94.8469 29.9109 98.0405 29.6743 103.067L29.4969 107.473L28.4915 108.154C27.9297 108.538 26.5103 109.159 25.3867 109.514C22.3705 110.46 16.8704 110.43 13.529 109.484C8.59075 108.065 4.8649 105.196 3.65252 101.914L3.00197 100.199L3.82994 99.1642C6.07728 96.3846 8.79774 92.4517 10.1875 89.9974C11.0451 88.4893 11.8139 87.2473 11.9322 87.2473C12.0505 87.2473 12.4053 87.8683 12.701 88.6371C13.115 89.7608 13.2333 90.8253 13.2037 93.7528C13.1741 96.9464 13.0559 97.8631 12.2575 100.554C11.7548 102.269 11.3704 103.688 11.4295 103.718C11.4591 103.748 12.287 102.772 13.2333 101.53C15.5102 98.6319 20.5963 93.4867 23.435 91.2098C25.9189 89.2286 29.2012 86.9516 31.8034 85.5027C32.7201 84.9704 33.4889 84.4382 33.4889 84.2903C33.4889 84.172 33.2819 83.5806 33.0453 83.0188C32.4244 81.5403 32.5131 80.5053 33.4298 76.8978L34.2281 73.8225L35.7067 73.4085C37.9244 72.7579 40.1422 70.3332 44.489 63.7094C46.5294 60.6046 49.102 57.1153 50.1665 55.9916C51.231 54.8384 52.1181 53.7147 52.1181 53.4781C52.1181 53.2416 51.852 52.798 51.5267 52.5023C51.0536 52.0588 50.6101 51.9996 49.0428 52.1179C47.1503 52.2953 47.0912 52.3249 44.4299 54.5722C42.9514 55.8142 41.7094 56.8196 41.6503 56.7604C41.6207 56.7013 40.9406 55.8438 40.1718 54.8679C38.9298 53.3303 38.782 53.005 38.9298 52.0588C39.0185 51.4969 39.3142 50.8464 39.6099 50.6394C39.9056 50.4324 40.7927 49.8114 41.5911 49.22L43.0105 48.1555L44.1046 49.1904C44.696 49.7523 45.6718 50.5802 46.2928 51.0238C47.2982 51.7631 47.5348 51.8222 49.0724 51.6448C52.2956 51.2604 52.2956 50.3733 49.0133 47.5049C47.7122 46.3813 45.938 44.9915 45.0509 44.4296L43.4541 43.4242L40.1718 43.7495C38.368 43.9565 36.6825 44.1635 36.4163 44.2522C36.0024 44.3705 35.9137 43.9565 35.7362 41.65C35.5292 39.0183 35.5588 38.8409 36.4163 37.0962C37.6879 34.4349 38.2201 32.2171 38.4271 28.5504C38.575 25.5047 38.5454 25.2385 37.9244 24.4697C37.1852 23.5235 35.8841 23.4052 35.204 24.174ZM37.3626 25.209C37.8357 26.1256 37.5104 30.3838 36.7416 33.1338C36.3868 34.3462 35.6771 36.0612 35.1448 36.8892L34.1986 38.4564L34.6421 41.9162C34.8787 43.8382 35.0857 45.435 35.1153 45.4942C35.1448 45.5237 37.0078 45.2872 39.2551 44.9619L43.3358 44.3409L44.4003 45.0506C44.9917 45.435 46.4998 46.7361 47.7713 47.9189C50.1961 50.1958 50.2848 50.5802 48.3627 50.5802C47.4165 50.5802 46.5589 50.0184 44.4003 47.9781L43.3062 46.9727L41.946 47.7711C41.1772 48.2146 39.9943 48.7469 39.3142 48.9539C38.0723 49.3087 38.0723 49.3087 37.8949 51.0238C37.6879 52.9163 37.5104 53.0937 35.618 53.3894C33.1045 53.7738 33.1045 54.04 35.618 53.8921L38.161 53.7738L39.8465 56.169C41.4137 58.4164 41.8868 58.8599 42.1234 58.3276C42.2713 57.9728 46.9138 53.9512 47.5939 53.5964C48.2444 53.2416 50.9353 53.0937 50.9353 53.3894C50.9353 53.4781 49.9595 54.6609 48.7767 56.0212C47.5939 57.3814 45.7605 59.747 44.696 61.2551C39.0777 69.3573 37.2443 71.2794 34.8491 71.7525C33.962 71.9004 33.8733 72.0482 32.6609 75.8037C31.9808 77.9623 31.1824 80.7123 30.9459 81.9247C30.6797 83.1371 30.4136 84.2903 30.384 84.4382C30.3249 84.6156 29.1421 85.4731 27.7227 86.3602C24.3517 88.4006 20.6258 91.2393 17.6688 93.9302C16.3973 95.113 15.3032 96.0593 15.2441 96.0297C15.2145 95.9706 15.3919 95.1426 15.658 94.1964C16.2199 92.1264 16.3086 88.2527 15.8355 87.3952C15.5693 86.8925 15.7467 86.3898 16.9887 84.2903C18.7629 81.2742 21.3947 76.0402 23.1393 72.0778L24.4108 69.1799L25.4754 70.2149C26.6877 71.3977 28.3437 72.1665 29.5561 72.137C30.2657 72.137 30.177 72.0482 29.0534 71.6638C27.2496 71.0429 25.8302 69.9192 25.3275 68.7364C25.0614 68.0858 24.9135 66.6073 24.9135 64.4191C24.9135 62.5858 24.8248 59.3626 24.7065 57.2927L24.5291 53.5077L22.0452 50.1958C20.2119 47.7711 19.5909 46.7361 19.7387 46.2926C19.8274 45.9673 20.271 43.8678 20.7146 41.65C21.3947 38.1312 21.6017 37.5693 22.0748 37.5693C22.5775 37.5693 22.607 37.7468 22.4001 40.2898C22.3113 41.7979 22.0748 43.6904 21.8974 44.4888L21.6017 45.9377L24.2038 48.3625L26.8356 50.7872L26.9243 48.5399C26.9834 47.2979 27.1609 41.9753 27.3679 36.6822C27.7227 27.1902 27.7227 27.0719 28.3732 26.9832C28.8759 26.924 29.0534 27.0719 29.2012 27.8112C29.3786 28.5504 29.4378 35.8543 29.2899 38.0129C29.2899 38.3382 29.5561 40.4376 29.9405 42.685C30.591 46.5587 30.6502 46.7361 31.2416 46.5587C31.5668 46.47 31.9512 46.2926 32.0695 46.1743C32.1878 46.0856 31.9512 44.814 31.5373 43.3947C30.8571 41.0586 30.8276 40.7334 31.212 40.2898C32.6018 38.7226 34.7308 31.744 35.411 26.4805C35.5292 25.6525 35.6771 24.9133 35.7658 24.7654C36.0319 24.3219 37.0373 24.588 37.3626 25.209Z"/>
</mask>
<path d="M35.204 24.174C34.9378 24.4697 34.583 25.6821 34.376 26.8945C34.169 28.1069 33.7846 29.9402 33.4889 30.9456C32.9862 32.7198 30.9459 37.7763 30.5614 38.2199C30.4727 38.3382 30.384 35.943 30.384 32.8972C30.384 28.0773 30.3249 27.2493 29.8518 26.5396C29.2308 25.5934 27.8706 25.4455 27.0426 26.2735C26.5695 26.7466 26.4807 27.8999 26.1259 37.4215C25.9189 43.2764 25.7119 48.0963 25.6528 48.1555C25.6232 48.2146 24.9135 47.5937 24.0856 46.8248L22.5775 45.4054L22.9915 43.4834C23.5237 41.1178 23.5829 37.2441 23.0802 36.7414C22.8732 36.5344 22.4592 36.3865 22.1044 36.3865C20.8033 36.3865 20.4484 37.0075 19.857 40.4968C19.5613 42.3597 19.1178 44.5775 18.8812 45.435L18.4672 47.0318L20.8624 50.4915L23.228 53.9512L23.021 60.1019C22.8436 66.1342 22.814 66.3116 21.8382 69.0321C20.4188 72.9649 18.4376 76.8091 15.865 80.594C12.8784 85.0592 13.0559 84.8817 11.7252 84.8817C10.6015 84.8817 10.5424 84.9409 9.2413 87.3065C6.7574 91.8307 2.79498 97.6265 1.43475 98.7502C0.754636 99.3416 0.843347 100.081 1.90788 102.239C3.74123 105.995 8.17677 109.869 12.5532 111.584C17.5505 113.565 22.4296 113.358 28.2254 110.933C30.384 110.016 30.5023 109.987 31.5668 110.43C33.1636 111.111 34.9378 112.619 35.9137 114.127C36.3572 114.866 36.7416 115.339 36.7416 115.191C36.7416 114.629 34.583 111.199 32.9271 109.129L31.1233 106.912V104.753C31.1233 102.713 31.1824 102.506 32.0104 101.737C33.9029 99.9626 37.4809 99.8443 41.2363 101.441L43.3358 102.299L42.5374 101.471C42.0938 100.998 41.2659 100.377 40.704 100.081C40.1422 99.7851 39.6986 99.4007 39.6986 99.2529C39.6986 99.105 40.3196 97.9222 41.0884 96.5915C47.0616 86.1532 55.5483 80.8602 68.3818 79.5591C70.0969 79.3817 72.0485 79.2042 72.7582 79.1155L74.0001 78.9677V80.2096C74.0001 81.3037 74.1776 81.6586 75.4491 82.9597C76.2475 83.7581 77.9921 85.9463 79.2932 87.7796L81.6884 91.1506V87.3065C81.6884 83.0484 81.8954 83.5806 78.8792 79.8548C77.2824 77.8736 75.7743 75.2714 75.7743 74.473C75.7743 73.7633 75.3604 73.5859 74.7394 74.059C74.4141 74.2956 74.1776 74.9757 74.0593 75.9515L73.9114 77.4892H71.9598C69.742 77.4892 64.8038 78.1101 61.7285 78.7903C56.7902 79.8548 51.3493 82.1021 47.5939 84.6452C43.8976 87.1586 39.8169 91.6237 38.2201 94.8765L37.4809 96.4141H36.0024C35.204 96.4141 33.9324 96.562 33.2228 96.7394C32.5131 96.8872 31.8921 96.976 31.833 96.9168C31.7147 96.7985 32.7792 89.3468 33.0749 88.2823C33.4298 86.9221 32.6314 88.6667 31.7738 91.1506C30.4432 94.8469 29.9109 98.0405 29.6743 103.067L29.4969 107.473L28.4915 108.154C27.9297 108.538 26.5103 109.159 25.3867 109.514C22.3705 110.46 16.8704 110.43 13.529 109.484C8.59075 108.065 4.8649 105.196 3.65252 101.914L3.00197 100.199L3.82994 99.1642C6.07728 96.3846 8.79774 92.4517 10.1875 89.9974C11.0451 88.4893 11.8139 87.2473 11.9322 87.2473C12.0505 87.2473 12.4053 87.8683 12.701 88.6371C13.115 89.7608 13.2333 90.8253 13.2037 93.7528C13.1741 96.9464 13.0559 97.8631 12.2575 100.554C11.7548 102.269 11.3704 103.688 11.4295 103.718C11.4591 103.748 12.287 102.772 13.2333 101.53C15.5102 98.6319 20.5963 93.4867 23.435 91.2098C25.9189 89.2286 29.2012 86.9516 31.8034 85.5027C32.7201 84.9704 33.4889 84.4382 33.4889 84.2903C33.4889 84.172 33.2819 83.5806 33.0453 83.0188C32.4244 81.5403 32.5131 80.5053 33.4298 76.8978L34.2281 73.8225L35.7067 73.4085C37.9244 72.7579 40.1422 70.3332 44.489 63.7094C46.5294 60.6046 49.102 57.1153 50.1665 55.9916C51.231 54.8384 52.1181 53.7147 52.1181 53.4781C52.1181 53.2416 51.852 52.798 51.5267 52.5023C51.0536 52.0588 50.6101 51.9996 49.0428 52.1179C47.1503 52.2953 47.0912 52.3249 44.4299 54.5722C42.9514 55.8142 41.7094 56.8196 41.6503 56.7604C41.6207 56.7013 40.9406 55.8438 40.1718 54.8679C38.9298 53.3303 38.782 53.005 38.9298 52.0588C39.0185 51.4969 39.3142 50.8464 39.6099 50.6394C39.9056 50.4324 40.7927 49.8114 41.5911 49.22L43.0105 48.1555L44.1046 49.1904C44.696 49.7523 45.6718 50.5802 46.2928 51.0238C47.2982 51.7631 47.5348 51.8222 49.0724 51.6448C52.2956 51.2604 52.2956 50.3733 49.0133 47.5049C47.7122 46.3813 45.938 44.9915 45.0509 44.4296L43.4541 43.4242L40.1718 43.7495C38.368 43.9565 36.6825 44.1635 36.4163 44.2522C36.0024 44.3705 35.9137 43.9565 35.7362 41.65C35.5292 39.0183 35.5588 38.8409 36.4163 37.0962C37.6879 34.4349 38.2201 32.2171 38.4271 28.5504C38.575 25.5047 38.5454 25.2385 37.9244 24.4697C37.1852 23.5235 35.8841 23.4052 35.204 24.174ZM37.3626 25.209C37.8357 26.1256 37.5104 30.3838 36.7416 33.1338C36.3868 34.3462 35.6771 36.0612 35.1448 36.8892L34.1986 38.4564L34.6421 41.9162C34.8787 43.8382 35.0857 45.435 35.1153 45.4942C35.1448 45.5237 37.0078 45.2872 39.2551 44.9619L43.3358 44.3409L44.4003 45.0506C44.9917 45.435 46.4998 46.7361 47.7713 47.9189C50.1961 50.1958 50.2848 50.5802 48.3627 50.5802C47.4165 50.5802 46.5589 50.0184 44.4003 47.9781L43.3062 46.9727L41.946 47.7711C41.1772 48.2146 39.9943 48.7469 39.3142 48.9539C38.0723 49.3087 38.0723 49.3087 37.8949 51.0238C37.6879 52.9163 37.5104 53.0937 35.618 53.3894C33.1045 53.7738 33.1045 54.04 35.618 53.8921L38.161 53.7738L39.8465 56.169C41.4137 58.4164 41.8868 58.8599 42.1234 58.3276C42.2713 57.9728 46.9138 53.9512 47.5939 53.5964C48.2444 53.2416 50.9353 53.0937 50.9353 53.3894C50.9353 53.4781 49.9595 54.6609 48.7767 56.0212C47.5939 57.3814 45.7605 59.747 44.696 61.2551C39.0777 69.3573 37.2443 71.2794 34.8491 71.7525C33.962 71.9004 33.8733 72.0482 32.6609 75.8037C31.9808 77.9623 31.1824 80.7123 30.9459 81.9247C30.6797 83.1371 30.4136 84.2903 30.384 84.4382C30.3249 84.6156 29.1421 85.4731 27.7227 86.3602C24.3517 88.4006 20.6258 91.2393 17.6688 93.9302C16.3973 95.113 15.3032 96.0593 15.2441 96.0297C15.2145 95.9706 15.3919 95.1426 15.658 94.1964C16.2199 92.1264 16.3086 88.2527 15.8355 87.3952C15.5693 86.8925 15.7467 86.3898 16.9887 84.2903C18.7629 81.2742 21.3947 76.0402 23.1393 72.0778L24.4108 69.1799L25.4754 70.2149C26.6877 71.3977 28.3437 72.1665 29.5561 72.137C30.2657 72.137 30.177 72.0482 29.0534 71.6638C27.2496 71.0429 25.8302 69.9192 25.3275 68.7364C25.0614 68.0858 24.9135 66.6073 24.9135 64.4191C24.9135 62.5858 24.8248 59.3626 24.7065 57.2927L24.5291 53.5077L22.0452 50.1958C20.2119 47.7711 19.5909 46.7361 19.7387 46.2926C19.8274 45.9673 20.271 43.8678 20.7146 41.65C21.3947 38.1312 21.6017 37.5693 22.0748 37.5693C22.5775 37.5693 22.607 37.7468 22.4001 40.2898C22.3113 41.7979 22.0748 43.6904 21.8974 44.4888L21.6017 45.9377L24.2038 48.3625L26.8356 50.7872L26.9243 48.5399C26.9834 47.2979 27.1609 41.9753 27.3679 36.6822C27.7227 27.1902 27.7227 27.0719 28.3732 26.9832C28.8759 26.924 29.0534 27.0719 29.2012 27.8112C29.3786 28.5504 29.4378 35.8543 29.2899 38.0129C29.2899 38.3382 29.5561 40.4376 29.9405 42.685C30.591 46.5587 30.6502 46.7361 31.2416 46.5587C31.5668 46.47 31.9512 46.2926 32.0695 46.1743C32.1878 46.0856 31.9512 44.814 31.5373 43.3947C30.8571 41.0586 30.8276 40.7334 31.212 40.2898C32.6018 38.7226 34.7308 31.744 35.411 26.4805C35.5292 25.6525 35.6771 24.9133 35.7658 24.7654C36.0319 24.3219 37.0373 24.588 37.3626 25.209Z" fill="#FFB800"/>
<path d="M35.204 24.174C34.9378 24.4697 34.583 25.6821 34.376 26.8945C34.169 28.1069 33.7846 29.9402 33.4889 30.9456C32.9862 32.7198 30.9459 37.7763 30.5614 38.2199C30.4727 38.3382 30.384 35.943 30.384 32.8972C30.384 28.0773 30.3249 27.2493 29.8518 26.5396C29.2308 25.5934 27.8706 25.4455 27.0426 26.2735C26.5695 26.7466 26.4807 27.8999 26.1259 37.4215C25.9189 43.2764 25.7119 48.0963 25.6528 48.1555C25.6232 48.2146 24.9135 47.5937 24.0856 46.8248L22.5775 45.4054L22.9915 43.4834C23.5237 41.1178 23.5829 37.2441 23.0802 36.7414C22.8732 36.5344 22.4592 36.3865 22.1044 36.3865C20.8033 36.3865 20.4484 37.0075 19.857 40.4968C19.5613 42.3597 19.1178 44.5775 18.8812 45.435L18.4672 47.0318L20.8624 50.4915L23.228 53.9512L23.021 60.1019C22.8436 66.1342 22.814 66.3116 21.8382 69.0321C20.4188 72.9649 18.4376 76.8091 15.865 80.594C12.8784 85.0592 13.0559 84.8817 11.7252 84.8817C10.6015 84.8817 10.5424 84.9409 9.2413 87.3065C6.7574 91.8307 2.79498 97.6265 1.43475 98.7502C0.754636 99.3416 0.843347 100.081 1.90788 102.239C3.74123 105.995 8.17677 109.869 12.5532 111.584C17.5505 113.565 22.4296 113.358 28.2254 110.933C30.384 110.016 30.5023 109.987 31.5668 110.43C33.1636 111.111 34.9378 112.619 35.9137 114.127C36.3572 114.866 36.7416 115.339 36.7416 115.191C36.7416 114.629 34.583 111.199 32.9271 109.129L31.1233 106.912V104.753C31.1233 102.713 31.1824 102.506 32.0104 101.737C33.9029 99.9626 37.4809 99.8443 41.2363 101.441L43.3358 102.299L42.5374 101.471C42.0938 100.998 41.2659 100.377 40.704 100.081C40.1422 99.7851 39.6986 99.4007 39.6986 99.2529C39.6986 99.105 40.3196 97.9222 41.0884 96.5915C47.0616 86.1532 55.5483 80.8602 68.3818 79.5591C70.0969 79.3817 72.0485 79.2042 72.7582 79.1155L74.0001 78.9677V80.2096C74.0001 81.3037 74.1776 81.6586 75.4491 82.9597C76.2475 83.7581 77.9921 85.9463 79.2932 87.7796L81.6884 91.1506V87.3065C81.6884 83.0484 81.8954 83.5806 78.8792 79.8548C77.2824 77.8736 75.7743 75.2714 75.7743 74.473C75.7743 73.7633 75.3604 73.5859 74.7394 74.059C74.4141 74.2956 74.1776 74.9757 74.0593 75.9515L73.9114 77.4892H71.9598C69.742 77.4892 64.8038 78.1101 61.7285 78.7903C56.7902 79.8548 51.3493 82.1021 47.5939 84.6452C43.8976 87.1586 39.8169 91.6237 38.2201 94.8765L37.4809 96.4141H36.0024C35.204 96.4141 33.9324 96.562 33.2228 96.7394C32.5131 96.8872 31.8921 96.976 31.833 96.9168C31.7147 96.7985 32.7792 89.3468 33.0749 88.2823C33.4298 86.9221 32.6314 88.6667 31.7738 91.1506C30.4432 94.8469 29.9109 98.0405 29.6743 103.067L29.4969 107.473L28.4915 108.154C27.9297 108.538 26.5103 109.159 25.3867 109.514C22.3705 110.46 16.8704 110.43 13.529 109.484C8.59075 108.065 4.8649 105.196 3.65252 101.914L3.00197 100.199L3.82994 99.1642C6.07728 96.3846 8.79774 92.4517 10.1875 89.9974C11.0451 88.4893 11.8139 87.2473 11.9322 87.2473C12.0505 87.2473 12.4053 87.8683 12.701 88.6371C13.115 89.7608 13.2333 90.8253 13.2037 93.7528C13.1741 96.9464 13.0559 97.8631 12.2575 100.554C11.7548 102.269 11.3704 103.688 11.4295 103.718C11.4591 103.748 12.287 102.772 13.2333 101.53C15.5102 98.6319 20.5963 93.4867 23.435 91.2098C25.9189 89.2286 29.2012 86.9516 31.8034 85.5027C32.7201 84.9704 33.4889 84.4382 33.4889 84.2903C33.4889 84.172 33.2819 83.5806 33.0453 83.0188C32.4244 81.5403 32.5131 80.5053 33.4298 76.8978L34.2281 73.8225L35.7067 73.4085C37.9244 72.7579 40.1422 70.3332 44.489 63.7094C46.5294 60.6046 49.102 57.1153 50.1665 55.9916C51.231 54.8384 52.1181 53.7147 52.1181 53.4781C52.1181 53.2416 51.852 52.798 51.5267 52.5023C51.0536 52.0588 50.6101 51.9996 49.0428 52.1179C47.1503 52.2953 47.0912 52.3249 44.4299 54.5722C42.9514 55.8142 41.7094 56.8196 41.6503 56.7604C41.6207 56.7013 40.9406 55.8438 40.1718 54.8679C38.9298 53.3303 38.782 53.005 38.9298 52.0588C39.0185 51.4969 39.3142 50.8464 39.6099 50.6394C39.9056 50.4324 40.7927 49.8114 41.5911 49.22L43.0105 48.1555L44.1046 49.1904C44.696 49.7523 45.6718 50.5802 46.2928 51.0238C47.2982 51.7631 47.5348 51.8222 49.0724 51.6448C52.2956 51.2604 52.2956 50.3733 49.0133 47.5049C47.7122 46.3813 45.938 44.9915 45.0509 44.4296L43.4541 43.4242L40.1718 43.7495C38.368 43.9565 36.6825 44.1635 36.4163 44.2522C36.0024 44.3705 35.9137 43.9565 35.7362 41.65C35.5292 39.0183 35.5588 38.8409 36.4163 37.0962C37.6879 34.4349 38.2201 32.2171 38.4271 28.5504C38.575 25.5047 38.5454 25.2385 37.9244 24.4697C37.1852 23.5235 35.8841 23.4052 35.204 24.174ZM37.3626 25.209C37.8357 26.1256 37.5104 30.3838 36.7416 33.1338C36.3868 34.3462 35.6771 36.0612 35.1448 36.8892L34.1986 38.4564L34.6421 41.9162C34.8787 43.8382 35.0857 45.435 35.1153 45.4942C35.1448 45.5237 37.0078 45.2872 39.2551 44.9619L43.3358 44.3409L44.4003 45.0506C44.9917 45.435 46.4998 46.7361 47.7713 47.9189C50.1961 50.1958 50.2848 50.5802 48.3627 50.5802C47.4165 50.5802 46.5589 50.0184 44.4003 47.9781L43.3062 46.9727L41.946 47.7711C41.1772 48.2146 39.9943 48.7469 39.3142 48.9539C38.0723 49.3087 38.0723 49.3087 37.8949 51.0238C37.6879 52.9163 37.5104 53.0937 35.618 53.3894C33.1045 53.7738 33.1045 54.04 35.618 53.8921L38.161 53.7738L39.8465 56.169C41.4137 58.4164 41.8868 58.8599 42.1234 58.3276C42.2713 57.9728 46.9138 53.9512 47.5939 53.5964C48.2444 53.2416 50.9353 53.0937 50.9353 53.3894C50.9353 53.4781 49.9595 54.6609 48.7767 56.0212C47.5939 57.3814 45.7605 59.747 44.696 61.2551C39.0777 69.3573 37.2443 71.2794 34.8491 71.7525C33.962 71.9004 33.8733 72.0482 32.6609 75.8037C31.9808 77.9623 31.1824 80.7123 30.9459 81.9247C30.6797 83.1371 30.4136 84.2903 30.384 84.4382C30.3249 84.6156 29.1421 85.4731 27.7227 86.3602C24.3517 88.4006 20.6258 91.2393 17.6688 93.9302C16.3973 95.113 15.3032 96.0593 15.2441 96.0297C15.2145 95.9706 15.3919 95.1426 15.658 94.1964C16.2199 92.1264 16.3086 88.2527 15.8355 87.3952C15.5693 86.8925 15.7467 86.3898 16.9887 84.2903C18.7629 81.2742 21.3947 76.0402 23.1393 72.0778L24.4108 69.1799L25.4754 70.2149C26.6877 71.3977 28.3437 72.1665 29.5561 72.137C30.2657 72.137 30.177 72.0482 29.0534 71.6638C27.2496 71.0429 25.8302 69.9192 25.3275 68.7364C25.0614 68.0858 24.9135 66.6073 24.9135 64.4191C24.9135 62.5858 24.8248 59.3626 24.7065 57.2927L24.5291 53.5077L22.0452 50.1958C20.2119 47.7711 19.5909 46.7361 19.7387 46.2926C19.8274 45.9673 20.271 43.8678 20.7146 41.65C21.3947 38.1312 21.6017 37.5693 22.0748 37.5693C22.5775 37.5693 22.607 37.7468 22.4001 40.2898C22.3113 41.7979 22.0748 43.6904 21.8974 44.4888L21.6017 45.9377L24.2038 48.3625L26.8356 50.7872L26.9243 48.5399C26.9834 47.2979 27.1609 41.9753 27.3679 36.6822C27.7227 27.1902 27.7227 27.0719 28.3732 26.9832C28.8759 26.924 29.0534 27.0719 29.2012 27.8112C29.3786 28.5504 29.4378 35.8543 29.2899 38.0129C29.2899 38.3382 29.5561 40.4376 29.9405 42.685C30.591 46.5587 30.6502 46.7361 31.2416 46.5587C31.5668 46.47 31.9512 46.2926 32.0695 46.1743C32.1878 46.0856 31.9512 44.814 31.5373 43.3947C30.8571 41.0586 30.8276 40.7334 31.212 40.2898C32.6018 38.7226 34.7308 31.744 35.411 26.4805C35.5292 25.6525 35.6771 24.9133 35.7658 24.7654C36.0319 24.3219 37.0373 24.588 37.3626 25.209Z" stroke="#FFB800" stroke-width="0.4" mask="url(#path-2-outside-2_1_27)"/>
<path d="M102.909 45.6109C102.88 47.2958 102.732 52.7654 102.554 57.7919L102.554 57.7923C102.421 62.052 102.34 64.3473 102.218 65.6779C102.158 66.3431 102.087 66.7611 101.997 67.0605C101.908 67.3561 101.8 67.538 101.657 67.7306L101.656 67.7325L101.656 67.7325C101.206 68.3707 100.093 69.4274 98.58 70.6813C97.0707 71.9323 95.1731 73.3721 93.1642 74.7754C90.1921 76.8455 88.0241 78.4141 86.5172 79.6026C85.7638 80.1968 85.1744 80.697 84.7318 81.1181C84.2904 81.5382 83.9905 81.8839 83.8208 82.1693L83.8205 82.1698C83.3021 83.0541 83.1857 83.8808 83.1266 87.1564C83.0971 88.2365 83.0896 89.2212 83.1045 89.9366C83.1119 90.294 83.1249 90.5861 83.1437 90.7897C83.153 90.8909 83.1641 90.9739 83.1776 91.0333C83.1842 91.0621 83.1926 91.0913 83.2046 91.1154C83.2105 91.1274 83.2199 91.1436 83.2348 91.1581C83.2504 91.1732 83.2777 91.1915 83.3153 91.1915C83.3392 91.1915 83.362 91.1848 83.3771 91.1797C83.3947 91.1739 83.4143 91.1658 83.4351 91.1564C83.4768 91.1376 83.5296 91.1105 83.5918 91.0764C83.7167 91.008 83.8855 90.9082 84.092 90.7814C84.5053 90.5276 85.0734 90.1632 85.7496 89.7202C87.1023 88.834 88.89 87.6314 90.7422 86.3652C94.4439 83.8345 98.4095 81.0455 99.6709 80.0217C101.182 78.8364 103.108 77.0888 104.028 76.1087L104.029 76.1078C104.991 75.0574 105.496 74.4929 105.757 73.2517C106.015 72.0268 106.037 70.1358 106.066 66.4307M102.909 45.6109L106.066 66.4307C106.066 66.4307 106.066 66.4307 106.066 66.4307M102.909 45.6109C102.924 44.5461 102.961 43.7872 103.025 43.2932C103.056 43.0472 103.095 42.8602 103.144 42.7323C103.169 42.6685 103.199 42.6126 103.236 42.5712C103.276 42.528 103.329 42.4963 103.394 42.4963C103.496 42.4963 103.606 42.5301 103.716 42.5835C103.827 42.6373 103.946 42.7142 104.067 42.8077C104.31 42.9947 104.572 43.2542 104.822 43.5479C105.322 44.1334 105.79 44.8699 105.973 45.4648L105.973 45.4652C106.362 46.753 106.436 48.3201 106.254 49.7355C106.072 51.147 105.632 52.4293 104.975 53.1325L104.974 53.133C104.707 53.4139 104.545 53.6998 104.426 54.2424C104.306 54.792 104.233 55.5975 104.144 56.915C104.055 58.2332 104.019 59.0093 104.048 59.4559C104.062 59.6815 104.093 59.8067 104.131 59.8738C104.149 59.9049 104.166 59.9199 104.181 59.9283C104.197 59.937 104.218 59.9427 104.251 59.9427C104.393 59.9427 104.595 60.0107 104.797 60.1079C105.003 60.2069 105.224 60.3439 105.408 60.4972M102.909 45.6109L106.066 66.4307M106.066 66.4307C106.096 63.8476 106.111 62.5089 106.032 61.7512C105.993 61.3711 105.929 61.125 105.825 60.9379C105.72 60.7498 105.578 60.6305 105.408 60.4972M105.408 60.4972C105.408 60.4975 105.409 60.4979 105.409 60.4982L105.345 60.575M105.408 60.4972C105.408 60.4969 105.407 60.4966 105.407 60.4963L105.345 60.575M105.345 60.575C104.99 60.2793 104.488 60.0427 104.251 60.0427C103.896 60.0427 103.867 59.54 104.044 56.9083C104.221 54.2765 104.34 53.6556 104.902 53.0642M105.345 60.575L104.902 53.0642M104.902 53.0642C106.173 51.7039 106.646 48.0372 105.877 45.4942C105.523 44.3409 104.044 42.5963 103.394 42.5963C103.157 42.5963 103.039 43.4834 103.009 45.6125L104.902 53.0642Z" fill="#FFB800" stroke="#FFB800" stroke-width="0.2"/>
<path d="M86.4916 48.149L86.4916 48.149L86.4933 48.1471C86.8252 47.785 87.5124 47.2175 87.9925 46.9175C88.6069 46.5335 89.5677 46.3478 90.5627 46.3478C91.56 46.3478 92.6104 46.5343 93.4109 46.9118L93.4111 46.912L94.5939 47.4738L94.5523 47.6641L92.3347 47.6937C90.3335 47.7231 88.1877 48.1059 86.6048 48.7508L86.6048 48.7508L86.6042 48.7511L86.0128 48.9876L85.9002 48.8292L86.4916 48.149Z" fill="#FFB800" stroke="#FFB800" stroke-width="0.2"/>
<path d="M76.4079 50.1472L76.4079 50.1472L76.4066 50.1474C75.3766 50.2651 73.9643 50.5596 73.2629 50.7934C72.9044 50.9129 72.5736 50.9959 72.33 51.0339C72.2094 51.0528 72.1045 51.0615 72.0267 51.0561C71.989 51.0535 71.9482 51.047 71.9137 51.0305C71.8767 51.0127 71.8302 50.9732 71.8302 50.9055C71.8302 50.8623 71.8484 50.8227 71.8654 50.7933C71.8838 50.7614 71.9091 50.7278 71.9382 50.6938C71.9966 50.6254 72.0785 50.5459 72.1759 50.46C72.3712 50.2877 72.6377 50.0822 72.9257 49.8777C73.4975 49.472 74.171 49.0589 74.5552 48.9198C74.7149 48.8533 74.9468 48.828 75.2059 48.829C75.4696 48.8299 75.7733 48.8582 76.0819 48.9069C76.6965 49.0037 77.345 49.1834 77.7438 49.3981L77.7438 49.3981L77.7471 49.4C77.8111 49.4376 77.8672 49.4732 77.9118 49.507C77.9545 49.5393 77.996 49.5767 78.0208 49.6202C78.0339 49.6433 78.0445 49.6718 78.0449 49.7044C78.0454 49.7383 78.0349 49.769 78.0175 49.795C77.9861 49.8419 77.9333 49.8714 77.8829 49.8925C77.7783 49.9365 77.6083 49.974 77.3717 50.0131C77.1322 50.0527 76.8144 50.0955 76.4079 50.1472Z" fill="#FFB800" stroke="#FFB800" stroke-width="0.2"/>
<path d="M126.439 101.932H130.036H133.732H133.832V102.032V103.955V105.877V105.977H133.732H130.036H126.439V115.339V124.802V124.902H126.339H124.27H122.17H122.069L122.07 124.801L122.159 109.779L122.259 109.78L122.159 109.779L122.159 109.749C122.203 102.304 122.225 98.5606 122.321 96.4945C122.37 95.4601 122.436 94.8406 122.535 94.3854C122.635 93.9274 122.766 93.6381 122.937 93.2678M126.439 101.932L133.632 93.2526L134.902 93.8435L134.995 93.8867L135.036 93.7927L135.627 92.4342M126.439 101.932V99.1346C126.439 97.9221 126.469 97.1533 126.568 96.5523C126.665 95.9552 126.831 95.5217 127.109 94.9813L127.109 94.9799C128.202 92.7647 130.916 92.0262 133.631 93.2523L126.439 101.932ZM122.937 93.2678C122.937 93.2678 122.937 93.2678 122.937 93.2678L123.028 93.3093L122.937 93.2675C122.937 93.2676 122.937 93.2677 122.937 93.2678ZM122.937 93.2678C124.012 90.9071 125.632 89.4951 127.94 88.8953M127.94 88.8953C128.741 88.6838 129.99 88.6629 131.225 88.7853C132.46 88.9077 133.7 89.1752 134.484 89.5521C134.873 89.7314 135.247 89.9407 135.536 90.1321C135.68 90.2278 135.805 90.3201 135.9 90.4029C135.991 90.482 136.069 90.5634 136.101 90.6381L136.102 90.6378L136.105 90.65C136.126 90.7227 136.123 90.8271 136.109 90.9411C136.095 91.0594 136.066 91.2026 136.024 91.3608C135.942 91.6768 135.807 92.0592 135.627 92.4342M127.94 88.8953C127.94 88.8953 127.941 88.8953 127.941 88.8952L127.966 88.992M127.94 88.8953L127.966 88.992M135.627 92.4342C135.626 92.4347 135.626 92.4353 135.626 92.4359L135.536 92.3926M135.627 92.4342L135.628 92.4325L135.536 92.3926M135.536 92.3926C135.891 91.6533 136.068 90.8845 136.009 90.6775M135.536 92.3926L134.984 93.6611L134.987 93.6621L134.944 93.7528L136.009 90.6775M136.009 90.6775C135.92 90.4705 135.211 89.9974 134.442 89.6426C132.904 88.9033 129.533 88.578 127.966 88.992M136.009 90.6775L127.966 88.992" fill="#FFB800" stroke="#FFB800" stroke-width="0.2"/>
<path d="M66.3343 89.5747C64.575 89.1574 60.5709 88.9808 55.8997 89.1286C55.8997 89.1286 55.8997 89.1286 55.8996 89.1286L52.1147 89.2469L52.0178 89.2499V89.3469V107.059V124.802V124.902H52.1178H54.1877H56.2576H56.3567L56.3576 124.803L56.4168 118.8L56.4168 118.799L56.4168 118.778C56.4168 115.507 56.4168 112.468 56.387 111.991L56.387 111.99L56.3358 111.299H60.4862C62.9572 111.299 64.7257 111.181 66.1933 110.846C67.6638 110.51 68.8284 109.957 70.0936 109.094M66.3343 89.5747C66.3342 89.5747 66.3341 89.5747 66.334 89.5747L66.3115 89.6721L66.3346 89.5748C66.3345 89.5748 66.3344 89.5748 66.3343 89.5747ZM66.3343 89.5747C67.3073 89.7993 68.4694 90.2916 69.5206 90.8785C70.5707 91.4648 71.5209 92.1515 72.0641 92.7701M72.0641 92.7701C74.1264 95.1163 74.9003 98.3398 74.5278 101.401C74.1554 104.463 72.6352 107.374 70.0936 109.094M72.0641 92.7701C72.0641 92.7701 72.0641 92.7701 72.0642 92.7702L71.989 92.8361M72.0641 92.7701L71.989 92.8361M70.0936 109.094C70.0935 109.094 70.0935 109.094 70.0934 109.094L70.0374 109.011M70.0936 109.094C70.0936 109.094 70.0937 109.094 70.0937 109.094L70.0374 109.011M70.0374 109.011C75.0643 105.61 76.0697 97.4787 71.989 92.8361M70.0374 109.011L71.989 92.8361M56.83 106.909L56.8305 106.909C56.8514 106.918 56.8983 106.931 56.9774 106.945C57.0537 106.958 57.1523 106.971 57.2711 106.983C57.5084 107.008 57.8215 107.03 58.1884 107.048C58.922 107.085 59.8665 107.107 60.841 107.107C62.5145 107.107 63.4144 107.092 64.1067 106.976C64.7934 106.86 65.2774 106.644 66.1193 106.231C67.3498 105.615 68.1336 104.975 68.7427 104.105C69.1557 103.5 69.3676 103.144 69.4814 102.628C69.5968 102.105 69.6121 101.415 69.6121 100.14C69.6121 98.8801 69.5969 98.1817 69.4885 97.654C69.3816 97.1339 69.1836 96.7775 68.8013 96.204C68.1921 95.3048 67.5274 94.754 66.3291 94.1986C65.5793 93.8605 65.0562 93.6648 64.2813 93.5411C63.5016 93.4166 62.4659 93.3649 60.6907 93.3205L60.6905 93.3205C59.5973 93.291 58.579 93.2836 57.8199 93.302C57.4401 93.3113 57.1269 93.3269 56.9024 93.3492C56.7897 93.3603 56.7021 93.3729 56.6404 93.3865C56.6094 93.3934 56.5877 93.3999 56.5738 93.4054C56.5716 93.4063 56.5697 93.4071 56.5682 93.4078C56.5668 93.4114 56.5651 93.4165 56.5631 93.4232C56.5561 93.4473 56.5483 93.4835 56.5403 93.5331C56.5244 93.6317 56.509 93.7726 56.4945 93.9526C56.4656 94.312 56.4407 94.8193 56.4204 95.4379C56.3798 96.6747 56.3576 98.3516 56.3576 100.17C56.3576 103.188 56.3725 104.839 56.446 105.761C56.4829 106.224 56.5339 106.493 56.5999 106.657C56.6322 106.737 56.6668 106.788 56.7026 106.825C56.7381 106.861 56.779 106.886 56.83 106.909Z" fill="#FFB800" stroke="#FFB800" stroke-width="0.2"/>
<path d="M163.852 107.563L163.852 107.563L163.764 95.4982L163.763 95.3929L163.868 95.3975L165.879 95.4863L167.89 95.575L167.982 95.5791L167.985 95.6721L168.074 98.8361L168.16 101.932H172.173H176.313H176.413V102.032V103.955V105.877V105.977H176.313H172.173H168.133V111.732C168.133 113.327 168.162 114.9 168.214 116.141C168.24 116.761 168.271 117.297 168.307 117.711C168.344 118.129 168.384 118.411 168.424 118.531L168.424 118.531L168.425 118.535C168.758 119.708 169.465 120.54 170.382 120.974C171.3 121.408 172.44 121.447 173.646 121.011C174.14 120.827 174.52 120.689 174.82 120.609C175.118 120.531 175.353 120.506 175.551 120.566C175.754 120.628 175.898 120.773 176.028 120.987C176.157 121.198 176.28 121.491 176.435 121.866L176.435 121.867L176.997 123.286L177.028 123.365L176.956 123.408L176.277 123.821C174.78 124.809 173.253 125.227 171.138 125.227C169.876 125.227 168.924 125.116 168.118 124.829C167.309 124.542 166.653 124.081 165.98 123.393L165.98 123.393C165.499 122.897 165.126 122.491 164.841 121.951C164.556 121.41 164.362 120.742 164.226 119.725C163.956 117.695 163.911 114.242 163.852 107.563Z" fill="#FFB800" stroke="#FFB800" stroke-width="0.2"/>
<path d="M185.579 98.7798V101.932H189.619H193.759H193.859V102.032V103.955V105.877V105.977H193.759H189.619H185.579V111.525C185.579 114.72 185.646 116.692 185.87 117.998C186.093 119.297 186.468 119.924 187.081 120.437L187.081 120.437L187.082 120.438C187.793 121.048 188.459 121.345 189.298 121.345C190.144 121.345 191.178 121.042 192.624 120.423C192.728 120.375 192.829 120.346 192.929 120.351C193.033 120.356 193.125 120.396 193.21 120.467C193.371 120.603 193.512 120.861 193.674 121.244L193.674 121.245C193.696 121.297 193.716 121.348 193.737 121.398C193.935 121.883 194.088 122.258 194.182 122.556C194.284 122.883 194.323 123.139 194.254 123.357C194.183 123.579 194.009 123.739 193.749 123.893C193.508 124.036 193.175 124.184 192.746 124.376C192.713 124.39 192.68 124.405 192.647 124.42C191.962 124.732 191.408 124.927 190.799 125.044C190.191 125.16 189.533 125.197 188.643 125.197C187.353 125.197 186.378 125.086 185.564 124.796C184.747 124.505 184.098 124.036 183.454 123.332C182.96 122.801 182.578 122.38 182.288 121.839C181.997 121.297 181.801 120.641 181.666 119.64C181.395 117.644 181.358 114.242 181.299 107.563L181.18 95.528L181.179 95.427H181.28H183.38H185.479H185.579V95.527V98.7798Z" fill="#FFB800" stroke="#FFB800" stroke-width="0.2"/>
<path d="M84.6774 101.788L84.6778 101.788C85.7559 101.489 87.0686 101.37 88.7322 101.489C92.9937 101.698 96.2813 103.817 97.9246 107.461C98.3293 108.316 98.6269 109.465 98.7867 110.601C98.9464 111.738 98.9698 112.873 98.8193 113.701L98.8191 113.702L98.6121 114.767L98.5963 114.848H98.5139H89.7611H81.1259L81.2844 115.825C81.2844 115.825 81.2844 115.826 81.2844 115.826C81.6039 117.742 82.9116 119.432 84.8388 120.425C85.621 120.823 86.1135 121.04 86.7055 121.159C87.3005 121.279 88.0004 121.301 89.1993 121.301C90.412 121.301 91.1269 121.271 91.7661 121.137C92.4041 121.003 92.9714 120.763 93.8879 120.335C94.4509 120.068 94.9698 119.838 95.352 119.679C95.543 119.599 95.7008 119.536 95.8133 119.495C95.8692 119.475 95.9158 119.459 95.9502 119.45C95.967 119.445 95.984 119.441 95.9991 119.438C96.0063 119.437 96.0171 119.436 96.0292 119.437C96.0352 119.437 96.0447 119.438 96.0556 119.441C96.0659 119.444 96.0841 119.451 96.1007 119.467C96.139 119.506 96.1809 119.577 96.2225 119.656C96.2664 119.74 96.3167 119.847 96.3705 119.968C96.4782 120.212 96.6018 120.52 96.7187 120.83C96.8355 121.14 96.9461 121.453 97.0276 121.707C97.0683 121.835 97.1021 121.948 97.1258 122.04C97.1485 122.128 97.165 122.207 97.165 122.259C97.165 122.305 97.1476 122.349 97.1278 122.386C97.107 122.426 97.078 122.467 97.0437 122.509C96.975 122.594 96.878 122.69 96.761 122.792C96.5267 122.996 96.2039 123.229 95.8446 123.439C90.7244 126.534 83.5468 125.914 79.6957 122.063C77.1279 119.495 75.8782 115.382 76.4739 111.48L76.474 111.48C77.2483 106.506 80.1417 103.072 84.6774 101.788ZM90.2064 105.677L90.2062 105.677C86.6987 104.654 82.8205 106.265 81.4542 109.26L81.3632 109.218L81.4543 109.259C81.3986 109.383 81.3452 109.499 81.2948 109.608C81.2205 109.77 81.1528 109.917 81.0937 110.053C80.9948 110.281 80.9254 110.467 80.8948 110.62C80.8643 110.772 80.8752 110.879 80.921 110.959C80.9668 111.04 81.0587 111.114 81.2337 111.175C81.5889 111.3 82.2224 111.353 83.2691 111.368C84.109 111.379 85.2041 111.366 86.6168 111.349C86.9559 111.345 87.3134 111.34 87.69 111.336C87.69 111.336 87.6901 111.336 87.6901 111.336L94.4411 111.249L94.3633 110.47C94.3633 110.47 94.3633 110.47 94.3633 110.47C94.1312 108.266 92.4177 106.317 90.2064 105.677Z" fill="#FFB800" stroke="#FFB800" stroke-width="0.2"/>
<path d="M112.659 101.609L112.659 101.609C113.293 101.488 114.25 101.482 115.14 101.552C115.587 101.587 116.019 101.642 116.389 101.713C116.757 101.783 117.072 101.87 117.277 101.973L117.277 101.973L117.281 101.975C117.399 102.042 117.506 102.11 117.576 102.207C117.651 102.31 117.677 102.433 117.664 102.591C117.652 102.746 117.603 102.943 117.518 103.203C117.433 103.465 117.311 103.798 117.148 104.227L117.148 104.227C116.91 104.836 116.693 105.294 116.503 105.591C116.408 105.738 116.317 105.852 116.227 105.924C116.141 105.994 116.037 106.039 115.93 106.001C113.832 105.411 113.321 105.329 112.401 105.502L112.401 105.502C110.981 105.763 109.588 106.779 108.952 107.993L108.952 107.993L108.951 107.995C108.71 108.435 108.571 108.869 108.494 110.089C108.417 111.313 108.402 113.312 108.402 116.877V124.802V124.902H108.302H106.38H104.458H104.358V124.802V113.417V102.032V101.932H104.458H106.38H108.302H108.402V102.032V103.274V104.287L109.061 103.675C109.061 103.675 109.061 103.675 109.061 103.675C110.283 102.513 111.452 101.85 112.659 101.609Z" fill="#FFB800" stroke="#FFB800" stroke-width="0.2"/>
<path d="M148.936 101.489C153.022 101.668 156.31 103.818 157.952 107.461C158.357 108.316 158.655 109.465 158.815 110.601C158.974 111.738 158.998 112.873 158.847 113.701L158.847 113.702L158.64 114.767L158.624 114.848H158.542H149.848H141.225V115.428C141.225 115.714 141.311 116.08 141.463 116.486C141.615 116.891 141.831 117.329 142.083 117.757C142.59 118.616 143.239 119.423 143.814 119.841C146.795 121.886 151.454 121.947 154.824 119.955C155.133 119.771 155.382 119.632 155.589 119.563C155.8 119.492 155.986 119.487 156.153 119.595C156.31 119.697 156.432 119.889 156.551 120.158C156.671 120.431 156.796 120.802 156.951 121.282L156.951 121.282L156.952 121.284C157.026 121.535 157.081 121.738 157.111 121.908C157.141 122.078 157.146 122.222 157.116 122.355C157.056 122.621 156.858 122.811 156.537 123.073C156.334 123.26 155.962 123.486 155.539 123.707C155.11 123.931 154.619 124.154 154.173 124.333L154.172 124.333C147.424 126.919 140.145 124.638 137.604 119.077C134.241 111.725 137.985 103.192 145.244 101.639L145.245 101.639C145.996 101.488 147.632 101.43 148.936 101.489ZM148.936 101.489L148.931 101.589M148.936 101.489C148.936 101.489 148.936 101.489 148.936 101.489L148.931 101.589M148.931 101.589C147.63 101.53 146.004 101.589 145.265 101.737L158.749 113.683C159.044 112.057 158.66 109.189 157.862 107.503C156.235 103.895 152.983 101.766 148.931 101.589ZM150.786 105.851L150.786 105.851L150.784 105.85C150.123 105.562 149.104 105.422 148.048 105.426C146.995 105.43 145.92 105.577 145.151 105.852C143.699 106.375 142.181 107.804 141.482 109.319L141.482 109.32C141.429 109.432 141.378 109.539 141.33 109.639C141.253 109.801 141.183 109.949 141.122 110.084C141.024 110.304 140.955 110.482 140.925 110.629C140.895 110.776 140.906 110.878 140.95 110.956C140.995 111.034 141.086 111.106 141.258 111.168C141.608 111.293 142.232 111.352 143.261 111.377C144.086 111.397 145.162 111.397 146.549 111.396C146.882 111.395 147.232 111.395 147.601 111.395C149.478 111.395 151.191 111.365 152.446 111.317C153.074 111.293 153.586 111.265 153.946 111.233C154.126 111.217 154.266 111.201 154.363 111.184C154.411 111.176 154.446 111.168 154.468 111.161C154.469 111.161 154.469 111.161 154.469 111.16C154.471 111.153 154.473 111.144 154.474 111.133C154.478 111.103 154.48 111.063 154.479 111.013C154.477 110.914 154.464 110.783 154.44 110.631C154.393 110.325 154.305 109.938 154.188 109.542L154.188 109.542C153.724 107.946 152.415 106.52 150.786 105.851ZM154.486 111.154C154.487 111.154 154.487 111.154 154.485 111.155L154.486 111.154ZM150.824 105.758C152.48 106.438 153.811 107.887 154.284 109.514L150.824 105.758Z" fill="#FFB800" stroke="#FFB800" stroke-width="0.2"/>
<path d="M197.505 115.442L197.505 115.442C196.582 108.919 200.069 103.458 206.183 101.818C209.044 101.043 212.409 101.311 215.296 102.561C216.096 102.893 217.111 103.634 218.042 104.491C218.974 105.348 219.832 106.332 220.312 107.157C220.732 107.878 221.142 109.012 221.446 110.195C221.75 111.378 221.952 112.622 221.952 113.565C221.952 118.008 219.181 122.421 215.298 124.154C207.382 127.725 198.669 123.472 197.505 115.442ZM203.801 118.793L203.801 118.793C205.784 121.126 208.935 121.975 212.095 121.068C214.079 120.485 215.506 119.291 216.44 117.482C216.748 116.866 216.928 116.41 217.033 115.831C217.138 115.25 217.168 114.541 217.168 113.417C217.168 112.293 217.138 111.584 217.033 111.003C216.928 110.424 216.748 109.968 216.44 109.352C215.564 107.66 214.165 106.436 212.386 105.823C211.704 105.591 210.761 105.451 209.831 105.418C208.901 105.385 207.997 105.459 207.392 105.647L207.392 105.647C201.993 107.31 200.031 114.409 203.801 118.793Z" fill="#FFB800" stroke="#FFB800" stroke-width="0.2"/>
</svg>
