<svg width="176" height="100" viewBox="0 0 176 100" fill="none" xmlns="http://www.w3.org/2000/svg">
<path d="M55.6887 1.18744C53.3436 1.93787 51.1627 3.81395 50.1543 5.99488C49.6618 7.05018 49.5211 7.14398 47.903 7.73026C44.4557 8.9966 41.9699 11.1541 41.0084 13.7102C40.258 15.7036 40.0704 18.4239 40.3518 23.2079C40.4691 25.5295 40.516 28.4374 40.4222 29.6569C40.3284 30.8763 40.258 32.3069 40.2815 32.7993C40.3049 34.2298 41.2429 35.3789 43.0956 36.2935L44.6433 37.044H48.6769H52.7339V40.2802C52.7339 43.6571 52.8277 44.0792 53.8127 45.158C54.3286 45.6974 55.7825 49.473 55.7825 50.2234C55.7825 50.4344 55.4542 50.5283 54.7976 50.5283C53.6016 50.5283 53.9065 50.8566 55.5011 51.2552C56.3923 51.4897 56.5564 51.6773 57.26 52.9672C58.7608 55.8282 62.5599 58.9471 64.9753 59.3458C65.5616 59.4162 65.4209 59.3224 64.4828 58.9471C62.8178 58.2905 59.9334 55.4295 58.8781 53.4362C58.4559 52.6388 58.1276 51.8884 58.1276 51.7712C58.1276 51.3959 60.7776 50.6924 62.8178 50.5048C66.0072 50.2234 67.8363 49.9185 68.4461 49.5902C68.7744 49.4026 70.0876 49.1915 71.3774 49.1212C73.1597 49.0274 73.9805 48.8632 74.7309 48.4646C75.88 47.8783 77.334 46.5885 76.5366 46.8934C74.684 47.5734 74.1212 47.55 71.6119 46.7526C69.0792 45.9553 67.9536 46.0491 66.3355 47.1279L65.1395 47.9252L64.2014 47.55C62.6068 46.9168 61.1763 47.2217 59.1595 48.6287C58.2214 49.2853 57.3772 49.8247 57.3303 49.8247C56.9785 49.8247 55.4308 43.3288 54.9618 39.9753C54.8211 38.92 54.8211 38.92 55.9467 38.0523C60.6369 34.4878 65.4912 32.94 72.081 32.8931L75.1296 32.8697L73.1363 32.5414C71.823 32.3303 70.1111 32.26 68.0943 32.3303C63.3807 32.4945 60.0037 33.5263 56.3219 35.8949C54.5162 37.044 54.3755 37.1143 54.3755 36.6218C54.3755 36.3404 54.2582 34.2767 54.141 32.0254L53.9065 27.945L54.5396 27.1007C59.5581 20.3469 66.1948 18.5411 75.7159 21.3084C76.7946 21.6367 77.7326 21.8477 77.7795 21.8008C77.8264 21.7774 76.8415 21.3318 75.5752 20.8628L73.3239 19.9717L73.4177 17.0403C73.5115 14.2965 73.488 14.1793 73.2066 15.258C73.0424 15.8912 72.8548 17.181 72.761 18.119C72.5969 19.9482 72.7141 19.8544 71.2367 19.4323C70.7443 19.2916 70.7208 19.2212 70.885 16.3133C70.9553 14.6952 71.1429 12.8426 71.2602 12.2094C71.4009 11.5762 71.4478 11.0134 71.4009 10.9665C71.2367 10.8023 70.3456 12.9598 69.9704 14.4138C69.7828 15.1408 69.5483 16.5009 69.4779 17.4389L69.3137 19.1509L68.6102 19.0102C68.235 18.9398 67.3439 18.8695 66.6638 18.8695H65.3974V18.0721C65.3974 16.9465 64.7408 12.2328 64.389 10.6616C64.1076 9.51253 64.0842 9.88774 64.178 14.2262L64.2952 19.0805L63.6152 19.2212C63.2399 19.315 62.8178 19.4088 62.6537 19.4557C62.4895 19.5261 62.3019 19.2212 62.2316 18.6819C61.6218 14.9297 60.6838 12.1156 59.3236 9.98155C58.3387 8.43378 57.6117 7.87096 58.4325 9.27802C59.6519 11.3652 60.8714 15.7505 60.9652 18.4004L61.0356 19.9013L60.0272 20.4407C59.4878 20.7221 58.5263 21.3318 57.8697 21.7774C57.2365 22.2464 56.6268 22.6216 56.533 22.6216C56.4157 22.6216 55.9936 22.1526 55.5715 21.5663C54.4458 20.0186 52.0069 17.6266 50.7875 16.923C49.3335 16.0553 49.2866 16.1257 50.553 17.2748C51.8193 18.4708 53.2498 20.3 54.4693 22.3402L55.3604 23.7942L54.1175 25.2247C53.2498 26.2331 52.8043 26.5848 52.5229 26.4676C50.553 25.6468 48.63 25.1309 47.2229 25.0605L45.5814 24.9902L46.7539 25.3419C48.6769 25.9282 51.6317 27.0773 52.218 27.4525C52.7105 27.7808 52.7339 27.9215 52.7339 30.9702V34.136L51.2565 34.8161C48.4424 36.1528 45.8393 36.2232 43.8929 35.0272C42.0872 33.9015 41.5947 32.2834 42.0872 29.1879C42.3451 27.5229 42.3686 26.5614 42.181 24.568C41.5478 17.6969 42.3217 14.4607 45.3234 11.4824C46.6132 10.2161 49.1928 8.55104 49.9198 8.55104C50.0605 8.55104 50.6702 8.87935 51.28 9.30147C54.3051 11.3183 56.2985 13.5461 57.3538 15.985L57.9166 17.3451L57.7993 16.0553C57.6117 14.1089 56.4392 11.9983 54.5162 10.0519C53.6016 9.13731 52.5932 8.22272 52.2883 8.01167C51.7724 7.6599 51.749 7.5661 52.0069 7.05018C52.5932 5.97143 54.0237 4.72853 55.4542 4.04845C57.9869 2.87591 61.2232 2.92281 64.1076 4.21261C65.1864 4.68163 65.6085 4.72853 67.3673 4.63473C68.9151 4.51748 69.6186 4.58783 70.4159 4.89269C71.4712 5.29136 72.9252 6.67496 73.7225 8.03512C74.1681 8.7621 74.2384 8.809 75.1296 8.62139C78.3424 7.98822 80.453 8.76209 82.845 11.4355C83.6188 12.3032 84.6038 13.2178 85.0024 13.4757C86.0343 14.062 86.9958 15.8208 87.582 18.1659L88.098 20.1593L88.2621 18.7991C88.567 16.3368 87.8635 14.6014 85.7529 12.6315C85.0728 11.9983 84.2286 11.0603 83.9002 10.5444C82.9388 9.06696 81.8131 8.05857 80.4061 7.40194C79.3273 6.88602 78.7176 6.76876 76.6304 6.72186C74.1915 6.62806 74.1446 6.62806 73.746 5.97143C73.1363 4.89269 71.4712 3.39183 70.2049 2.71175C69.1261 2.14893 68.7978 2.10202 65.9837 2.07858C63.3338 2.05512 62.7944 1.98477 61.7625 1.51575C60.2617 0.812222 57.3538 0.648067 55.6887 1.18744Z" fill="#151515"/>
<path d="M27.1258 19.2681C26.9147 19.5026 26.6333 20.4641 26.4691 21.4256C26.305 22.3871 26.0001 23.841 25.7656 24.6384C25.367 26.0454 23.7488 30.0555 23.444 30.4073C23.3736 30.5011 23.3033 28.6016 23.3033 26.1861C23.3033 22.3636 23.2564 21.707 22.8812 21.1442C22.3887 20.3937 21.3099 20.2765 20.6533 20.9331C20.2781 21.3083 20.2077 22.2229 19.9263 29.7741C19.7622 34.4174 19.598 38.2399 19.5511 38.2868C19.5277 38.3337 18.9648 37.8413 18.3082 37.2315L17.1122 36.1059L17.4405 34.5816C17.8626 32.7055 17.9095 29.6334 17.5109 29.2348C17.3467 29.0706 17.0184 28.9533 16.737 28.9533C15.7052 28.9533 15.4237 29.4458 14.9547 32.213C14.7202 33.6904 14.3685 35.4493 14.1808 36.1293L13.8525 37.3957L15.7521 40.1395L17.6281 42.8832L17.464 47.761C17.3233 52.545 17.2998 52.6857 16.5259 54.8432C15.4003 57.9622 13.8291 61.0108 11.7888 64.0125C9.4203 67.5536 9.56101 67.4129 8.50572 67.4129C7.61458 67.4129 7.56768 67.4598 6.53584 69.3359C4.56596 72.9239 1.42353 77.5203 0.344784 78.4114C-0.194588 78.8804 -0.124235 79.4667 0.719999 81.1786C2.17396 84.1569 5.6916 87.229 9.16234 88.5891C13.1256 90.1603 16.995 89.9962 21.5914 88.0732C23.3033 87.3462 23.3971 87.3228 24.2413 87.6745C25.5077 88.2139 26.9147 89.4099 27.6886 90.6059C28.0404 91.1922 28.3452 91.5674 28.3452 91.4501C28.3452 91.0046 26.6333 88.2843 25.32 86.6427L23.8895 84.8839V83.172C23.8895 81.5538 23.9364 81.3897 24.5931 80.78C26.0939 79.3729 28.9315 79.2791 31.9098 80.5455L33.5748 81.2255L32.9416 80.5689C32.5898 80.1937 31.9332 79.7012 31.4877 79.4667C31.0421 79.2322 30.6903 78.9273 30.6903 78.8101C30.6903 78.6928 31.1828 77.7548 31.7925 76.6995C36.5296 68.4213 43.26 64.2236 53.4377 63.1917C54.7979 63.051 56.3457 62.9103 56.9085 62.84L57.8934 62.7227V63.7077C57.8934 64.5754 58.0341 64.8568 59.0425 65.8886C59.6757 66.5218 61.0593 68.2572 62.0912 69.7111L63.9907 72.3845V69.3359C63.9907 65.959 64.1548 66.3811 61.7628 63.4263C60.4965 61.855 59.3005 59.7914 59.3005 59.1582C59.3005 58.5954 58.9722 58.4547 58.4797 58.8299C58.2217 59.0175 58.0341 59.5568 57.9403 60.3307L57.8231 61.5502H56.2753C54.5165 61.5502 50.6002 62.0426 48.1613 62.582C44.245 63.4263 39.93 65.2085 36.9517 67.2253C34.0204 69.2186 30.7841 72.7597 29.5178 75.3393L28.9315 76.5588H27.7589C27.1258 76.5588 26.1174 76.676 25.5546 76.8168C24.9917 76.934 24.4993 77.0044 24.4524 76.9575C24.3586 76.8637 25.2028 70.954 25.4373 70.1098C25.7187 69.031 25.0855 70.4146 24.4055 72.3845C23.3502 75.3159 22.9281 77.8486 22.7404 81.8353L22.5997 85.3294L21.8024 85.8688C21.3568 86.1737 20.2312 86.6662 19.3401 86.9476C16.9481 87.698 12.5862 87.6745 9.93622 86.9241C6.01992 85.7985 3.06509 83.5237 2.10361 80.9207L1.58768 79.5605L2.24431 78.7397C4.02658 76.5353 6.18407 73.4164 7.28627 71.4699C7.96634 70.2739 8.57607 69.289 8.66987 69.289C8.76368 69.289 9.04509 69.7815 9.2796 70.3912C9.60791 71.2823 9.70172 72.1266 9.67826 74.4482C9.65481 76.9809 9.56101 77.7079 8.92783 79.8419C8.52917 81.2021 8.22431 82.3277 8.27121 82.3512C8.29466 82.3746 8.95128 81.6007 9.70172 80.6158C11.5074 78.3176 15.541 74.2371 17.7923 72.4314C19.7622 70.8602 22.3652 69.0545 24.4289 67.9054C25.1559 67.4833 25.7656 67.0612 25.7656 66.9439C25.7656 66.8501 25.6015 66.3811 25.4139 65.9355C24.9214 64.763 24.9917 63.9422 25.7187 61.0812L26.3519 58.6423L27.5244 58.3139C29.2833 57.798 31.0421 55.875 34.4894 50.622C36.1075 48.1597 38.1477 45.3925 38.992 44.5013C39.8362 43.5867 40.5397 42.6956 40.5397 42.508C40.5397 42.3204 40.3287 41.9686 40.0707 41.7341C39.6955 41.3824 39.3437 41.3354 38.1008 41.4293C36.6 41.57 36.5531 41.5934 34.4425 43.3757C33.2699 44.3606 32.285 45.158 32.2381 45.1111C32.2146 45.0642 31.6753 44.3841 31.0655 43.6102C30.0806 42.3907 29.9633 42.1328 30.0806 41.3824C30.1509 40.9368 30.3855 40.4209 30.62 40.2567C30.8545 40.0925 31.558 39.6001 32.1912 39.1311L33.3168 38.2868L34.1845 39.1076C34.6535 39.5532 35.4274 40.2098 35.9199 40.5616C36.7172 41.1478 36.9048 41.1947 38.1243 41.054C40.6804 40.7492 40.6804 40.0456 38.0774 37.7709C37.0455 36.8798 35.6385 35.7776 34.9349 35.332L33.6686 34.5347L31.0655 34.7926C29.635 34.9568 28.2983 35.1209 28.0873 35.1913C27.7589 35.2851 27.6886 34.9568 27.5479 33.1276C27.3837 31.0405 27.4072 30.8998 28.0873 29.5162C29.0957 27.4056 29.5178 25.6468 29.6819 22.7388C29.7992 20.3234 29.7757 20.1123 29.2833 19.5026C28.697 18.7522 27.6651 18.6584 27.1258 19.2681ZM28.8377 20.0889C29.2129 20.8159 28.9549 24.1928 28.3452 26.3737C28.0638 27.3352 27.501 28.6954 27.0789 29.352L26.3284 30.5949L26.6802 33.3387C26.8678 34.863 27.032 36.1293 27.0554 36.1762C27.0789 36.1997 28.5563 36.0121 30.3386 35.7541L33.5748 35.2617L34.419 35.8245C34.888 36.1293 36.084 37.1612 37.0924 38.0992C39.0154 39.9049 39.0858 40.2098 37.5615 40.2098C36.811 40.2098 36.1309 39.7642 34.419 38.1461L33.5513 37.3488L32.4726 37.982C31.8629 38.3337 30.9248 38.7558 30.3855 38.92C29.4005 39.2014 29.4005 39.2014 29.2598 40.5616C29.0957 42.0624 28.9549 42.2031 27.4541 42.4376C25.4608 42.7425 25.4608 42.9536 27.4541 42.8363L29.4709 42.7425L30.8076 44.642C32.0505 46.4243 32.4257 46.7761 32.6133 46.354C32.7306 46.0725 36.4124 42.8832 36.9517 42.6018C37.4676 42.3204 39.6017 42.2031 39.6017 42.4376C39.6017 42.508 38.8278 43.446 37.8898 44.5248C36.9517 45.6035 35.4978 47.4796 34.6535 48.6756C30.1978 55.1012 28.7439 56.6255 26.8444 57.0007C26.1408 57.1179 26.0705 57.2352 25.109 60.2135C24.5696 61.9254 23.9364 64.1063 23.7488 65.0678C23.5378 66.0293 23.3267 66.9439 23.3033 67.0612C23.2564 67.2019 22.3183 67.8819 21.1927 68.5855C18.5193 70.2036 15.5645 72.4549 13.2194 74.5889C12.211 75.5269 11.3433 76.2774 11.2964 76.2539C11.2729 76.207 11.4136 75.5504 11.6247 74.8C12.0703 73.1584 12.1406 70.0863 11.7654 69.4062C11.5543 69.0076 11.695 68.6089 12.68 66.9439C14.087 64.5519 16.1742 60.4011 17.5578 57.2587L18.5662 54.9605L19.4104 55.7812C20.3719 56.7193 21.6852 57.329 22.6466 57.3056C23.2095 57.3056 23.1391 57.2352 22.248 56.9303C20.8175 56.4379 19.6918 55.5467 19.2932 54.6087C19.0821 54.0928 18.9648 52.9202 18.9648 51.1849C18.9648 49.7309 18.8945 47.1747 18.8007 45.5332L18.66 42.5314L16.6901 39.9049C15.2361 37.982 14.7437 37.1612 14.8609 36.8094C14.9313 36.5515 15.283 34.8864 15.6348 33.1276C16.1742 30.337 16.3383 29.8914 16.7136 29.8914C17.1122 29.8914 17.1357 30.0321 16.9715 32.0489C16.9012 33.2449 16.7136 34.7457 16.5728 35.3789L16.3383 36.528L18.402 38.451L20.4892 40.374L20.5595 38.5917C20.6064 37.6067 20.7471 33.3856 20.9113 29.1879C21.1927 21.6601 21.1927 21.5663 21.7086 21.4959C22.1073 21.449 22.248 21.5663 22.3652 22.1526C22.5059 22.7388 22.5528 28.5312 22.4356 30.2431C22.4356 30.5011 22.6466 32.1661 22.9515 33.9484C23.4674 37.0205 23.5143 37.1612 23.9833 37.0205C24.2413 36.9501 24.5462 36.8094 24.64 36.7156C24.7338 36.6453 24.5462 35.6369 24.2179 34.5112C23.6785 32.6586 23.655 32.4006 23.9599 32.0489C25.0621 30.806 26.7506 25.2715 27.2899 21.0973C27.3837 20.4406 27.501 19.8544 27.5713 19.7371C27.7824 19.3854 28.5797 19.5964 28.8377 20.0889Z" fill="#151515"/>
<path d="M80.8995 36.2701C80.876 37.6068 80.7588 41.9452 80.618 45.9319C80.407 52.6857 80.3601 53.2251 79.8911 53.8583C79.1641 54.8901 76.3265 57.2352 73.1372 59.4631C68.4235 62.7462 66.2661 64.4347 65.7501 65.3023C65.3515 65.9824 65.2577 66.6156 65.2108 69.2187C65.1639 70.9306 65.1873 72.3376 65.2811 72.3376C65.6329 72.3376 76.2093 65.1147 78.2026 63.4966C79.3986 62.5586 80.9229 61.175 81.6499 60.4011C83.1742 58.7361 83.1977 58.6657 83.2446 52.7795C83.2915 48.6756 83.2915 48.5584 82.7521 48.1362C82.4707 47.9017 82.072 47.7141 81.8844 47.7141C81.603 47.7141 81.5795 47.3155 81.7202 45.2283C81.8609 43.1412 81.9548 42.6487 82.4003 42.1797C83.4087 41.101 83.7839 38.193 83.1742 36.1763C82.8928 35.2617 81.7202 33.8781 81.2043 33.8781C81.0167 33.8781 80.9229 34.5816 80.8995 36.2701Z" fill="#151515"/>
<path d="M69.0323 37.3722C68.657 37.6068 68.1177 38.0523 67.8597 38.3337L67.3907 38.8731L67.8597 38.6855C69.1261 38.1696 70.838 37.8647 72.4326 37.8413L74.1915 37.8178L73.2534 37.3722C72.0105 36.786 69.9703 36.786 69.0323 37.3722Z" fill="#151515"/>
<path d="M58.3621 38.9669C57.7758 39.178 56.2515 40.2567 56.2515 40.4678C56.2515 40.5616 56.7205 40.4912 57.2833 40.3036C57.8461 40.116 58.9718 39.8815 59.7926 39.7877C61.0824 39.6236 61.2231 39.5767 60.8244 39.3421C60.2147 39.0138 58.8076 38.7793 58.3621 38.9669Z" fill="#151515"/>
<path d="M100.691 70.6726C98.8856 71.1416 97.6192 72.2438 96.775 74.0964C96.2356 75.269 96.2356 75.3159 96.1653 87.1586L96.0949 99.0717H97.7599H99.4015V91.5674V84.0631H102.333H105.264V82.5388V81.0145H102.333H99.4015V78.7163C99.4015 76.7933 99.4953 76.2539 99.9409 75.3863C100.832 73.5805 103.036 72.9943 105.217 73.9792L106.226 74.4482L106.695 73.3695C106.976 72.7832 107.117 72.1735 107.07 72.0093C107 71.8452 106.437 71.4699 105.827 71.1885C104.608 70.6023 101.934 70.3443 100.691 70.6726Z" fill="#151515"/>
<path d="M43.5415 70.8602L40.5397 70.954V85.0011V99.0717H42.1813H43.8229L43.8698 94.3112C43.8698 91.7081 43.8698 89.2927 43.8463 88.9175L43.7994 88.2843H47.1764C51.0927 88.2843 52.7577 87.9091 54.751 86.5489C58.7377 83.852 59.535 77.403 56.2988 73.7212C55.4545 72.7597 53.3205 71.5637 51.7962 71.212C50.4126 70.8837 47.2467 70.743 43.5415 70.8602ZM51.8431 74.7296C52.8046 75.1752 53.344 75.6208 53.8364 76.3477C54.4462 77.2623 54.4931 77.5203 54.4931 79.5136C54.4931 81.5304 54.4462 81.7415 53.7895 82.7029C53.2971 83.4065 52.6639 83.9224 51.6789 84.4149C50.3422 85.0715 50.1077 85.1184 47.4578 85.1184C45.91 85.1184 44.456 85.048 44.245 84.9542C43.8698 84.7901 43.8229 84.3211 43.8229 79.5371C43.8229 76.6526 43.8932 74.2137 44.0105 74.1199C44.1043 74.0026 45.6051 73.9792 47.3405 74.0261C50.1546 74.0964 50.6471 74.1903 51.8431 74.7296Z" fill="#151515"/>
<path d="M129.231 85.3998C129.324 95.9997 129.371 96.328 130.896 97.8992C131.951 98.9779 132.936 99.3297 134.929 99.3297C136.594 99.3297 137.79 99.0014 138.963 98.2275L139.502 97.8992L139.057 96.7735C138.564 95.5775 138.517 95.5541 136.946 96.1404C135 96.8439 133.241 96.0231 132.701 94.1236C132.561 93.7015 132.467 91.2391 132.467 88.7064V84.0631H135.75H139.033V82.5388V81.0145H135.75H132.49L132.42 78.4818L132.35 75.9725L130.755 75.9022L129.16 75.8318L129.231 85.3998Z" fill="#151515"/>
<path d="M143.067 85.3998C143.161 95.9997 143.184 96.1638 144.755 97.8523C145.764 98.9545 146.772 99.3062 148.812 99.3062C150.219 99.3062 150.876 99.189 151.955 98.6965C153.479 98.0164 153.456 98.0633 152.729 96.2811C152.471 95.6713 152.306 95.5306 152.002 95.6713C149.703 96.6563 148.672 96.6563 147.522 95.6713C146.514 94.8271 146.303 93.6077 146.303 88.5423V84.0631H149.586H152.869V82.5388V81.0145H149.586H146.303V78.4349V75.8553H144.638H142.973L143.067 85.3998Z" fill="#151515"/>
<path d="M66.383 80.8973C62.8184 81.9057 60.5437 84.6025 59.934 88.5188C59.465 91.5909 60.4499 94.8271 62.4667 96.8439C65.4919 99.8691 71.1435 100.362 75.1771 97.9227C75.7399 97.5943 76.1855 97.1957 76.1855 97.055C76.1855 96.8205 75.5289 95.0616 75.3647 94.8975C75.3413 94.874 74.5908 95.1789 73.6997 95.601C72.2457 96.2811 71.8705 96.3749 69.9475 96.3749C68.048 96.3749 67.6962 96.3045 66.4533 95.6714C64.9056 94.874 63.8503 93.5139 63.5923 91.9661L63.4516 91.0984H70.3931H77.3346L77.4987 90.2542C77.7332 88.9644 77.4284 86.6896 76.7952 85.3529C75.5054 82.4919 72.9258 80.8269 69.5723 80.6628C68.2591 80.5689 67.2272 80.6628 66.383 80.8973ZM70.7683 83.8286C72.5506 84.3446 73.9342 85.9158 74.1218 87.698L74.1922 88.4016L68.7515 88.4719C62.5839 88.5423 62.8653 88.6361 63.733 86.7131C64.8352 84.2976 67.9542 83.0078 70.7683 83.8286Z" fill="#151515"/>
<path d="M88.5677 80.7565C87.6297 80.9441 86.7151 81.46 85.7536 82.3746L85.097 82.9844V81.9994V81.0145H83.5727H82.0483V90.0431V99.0717H83.5727H85.097V92.7869C85.097 87.1352 85.1439 86.4317 85.5425 85.7047C86.0585 84.7197 87.1841 83.8989 88.3332 83.6879C89.0836 83.5472 89.5057 83.6175 91.1708 84.0866C91.3584 84.1569 91.6632 83.6879 92.0384 82.7264C92.5544 81.3662 92.5544 81.249 92.1792 81.0379C91.5694 80.7331 89.5526 80.5689 88.5677 80.7565Z" fill="#151515"/>
<path d="M114.41 80.78C108.712 81.9995 105.757 88.7064 108.407 94.4988C110.4 98.8607 116.122 100.666 121.446 98.6262C122.149 98.3448 122.993 97.9227 123.298 97.6412C123.814 97.2191 123.838 97.1019 123.603 96.3045C123.111 94.7802 123.017 94.7099 122.032 95.2962C119.335 96.8908 115.606 96.8439 113.214 95.2023C112.276 94.5223 111.127 92.5993 111.127 91.6378V91.0984H118.045H124.94L125.104 90.2542C125.338 88.9644 125.034 86.6896 124.4 85.3529C123.111 82.4919 120.531 80.8035 117.318 80.6628C116.286 80.6159 114.997 80.6628 114.41 80.78ZM118.819 83.9693C120.132 84.5087 121.188 85.6578 121.563 86.9476C121.75 87.5808 121.844 88.1905 121.774 88.3078C121.704 88.425 119.241 88.5188 116.263 88.5188C110.213 88.5188 110.471 88.6126 111.338 86.76C111.901 85.5406 113.121 84.3915 114.293 83.9693C115.536 83.5238 117.74 83.5003 118.819 83.9693Z" fill="#151515"/>
<path d="M162.743 80.9207C157.936 82.2105 155.192 86.502 155.919 91.6378C156.833 97.9461 163.681 101.3 169.919 98.4855C172.968 97.1253 175.149 93.6546 175.149 90.1604C175.149 88.683 174.515 86.2441 173.859 85.1184C173.108 83.8286 171.162 82.0229 169.919 81.507C167.644 80.522 164.994 80.311 162.743 80.9207ZM167.668 83.9459C169.098 84.4383 170.224 85.4233 170.927 86.7834C171.42 87.7684 171.514 88.2608 171.514 90.0431C171.514 91.8254 171.42 92.3179 170.927 93.3028C170.177 94.7568 169.028 95.7182 167.433 96.1873C164.9 96.9142 162.368 96.2342 160.773 94.3581C157.748 90.8404 159.319 85.1419 163.658 83.8052C164.642 83.5003 166.565 83.5706 167.668 83.9459Z" fill="#151515"/>
</svg>
